<svg width="1920" height="1281" viewBox="0 0 1920 1281" fill="none" xmlns="http://www.w3.org/2000/svg">
<mask id="mask0_208_360" style="mask-type:alpha" maskUnits="userSpaceOnUse" x="0" y="0" width="1920" height="1281">
<rect width="1920" height="1281" fill="#C4C4C4"/>
</mask>
<g mask="url(#mask0_208_360)">
<path d="M1998.84 -159.515L1941.69 -126.515L1869.31 -168.307L1877.43 -172.995H1876.37L1868.78 -168.61L1861.18 -172.995H1860.13L1868.25 -168.307L1795.86 -126.515L1723.48 -168.308L1731.6 -172.995H1730.54L1722.95 -168.612L1715.36 -172.995H1714.3L1722.42 -168.308L1650.04 -126.516L1577.65 -168.308L1585.77 -172.994H1584.72L1577.13 -168.613L1569.54 -172.994H1568.48L1576.6 -168.308L1504.21 -126.517L1431.83 -168.309L1439.94 -172.994H1438.89L1431.3 -168.614L1423.71 -172.994H1422.66L1430.77 -168.309L1358.39 -126.518L1286 -168.31L1294.11 -172.994H1293.06L1285.47 -168.616L1277.89 -172.994H1276.83L1284.95 -168.31L1212.56 -126.519L1140.18 -168.311L1148.29 -172.994H1147.23L1139.65 -168.617L1132.07 -172.994H1131.02L1139.13 -168.311L1066.74 -126.52L994.358 -168.312L1002.47 -172.993H1001.41L993.829 -168.617L986.248 -172.993H985.193L993.301 -168.312L920.916 -126.527L863.785 -159.512V-159.503L848.53 -168.311L856.651 -172.999H855.595L848.001 -168.614L840.407 -172.999H839.351L847.472 -168.311L775.088 -126.519L702.702 -168.312L710.821 -172.999H709.766L702.175 -168.616L694.584 -172.999H693.527L701.646 -168.312L629.264 -126.52L556.877 -168.312L564.995 -172.998H563.938L556.349 -168.617L548.76 -172.998H547.704L555.821 -168.312L483.437 -126.521L411.051 -168.313L419.165 -172.998H418.109L410.523 -168.618L402.937 -172.998H401.88L409.995 -168.313L337.616 -126.523L265.226 -168.315L273.338 -172.999H272.282L264.697 -168.621L257.113 -172.999H256.056L264.169 -168.315L191.786 -126.525L119.4 -168.317L127.511 -173H126.455L118.872 -168.623L111.289 -173H110.233L118.344 -168.317L45.96 -126.526L-26.426 -168.318L-18.318 -172.999H-19.374L-26.955 -168.623L-34.536 -172.999H-35.584L-27.476 -168.318L-99.86 -126.527L-156.991 -159.512V-158.902L-100.391 -126.222L-156.991 -93.542V-92.9331L-99.86 -125.916L-27.474 -84.125L-99.859 -42.333L-156.991 -75.3179V-74.709L-100.391 -42.0278L-156.991 -9.34717V-8.73779L-99.859 -41.7241L-27.473 0.0668945L-99.857 41.8589L-156.991 8.87305V9.48096L-100.384 42.1631L-156.991 74.8452V75.4551L-99.857 42.4683L-27.471 84.2603L-99.855 126.052L-156.992 93.064V93.6719L-100.383 126.355L-156.992 159.039V159.649L-99.855 126.661L-27.469 168.453L-99.853 210.245L-156.992 177.256V177.866L-100.384 210.545L-156.995 243.23V243.839L-99.856 210.85L-27.47 252.645L-99.854 294.436L-156.996 261.445V262.055L-100.384 294.745L-156.998 327.43V328.04L-99.856 295.05L-27.47 336.841L-99.855 378.632L-156.998 345.64V346.25L-100.383 378.937L-156.998 411.624V412.234L-99.855 379.242L-27.469 421.034L-99.853 462.826L-156.998 429.832V430.441L-100.381 463.129L-156.998 495.817V496.427L-99.853 463.434L-27.467 505.226L-99.851 547.018L-156.998 514.018V514.628L-100.378 547.317L-156.998 580.007V580.617L-99.851 547.617L-27.486 589.398L-99.867 631.186L-156.998 598.202V598.814L-100.398 631.492L-156.998 664.171V664.805L-99.848 631.805L-27.483 673.585L-99.865 715.375L-156.997 682.39V683L-100.397 715.681L-156.997 748.361V748.971L-99.865 715.985L-27.479 757.777L-99.863 799.568L-156.997 766.581V767.191L-100.39 799.872L-156.997 832.554V833.164L-99.863 800.178L-27.477 841.97L-99.861 883.761L-156.998 850.773V851.382L-100.389 884.066L-156.998 916.75V917.358L-99.861 884.37L-27.475 926.162L-99.859 967.953L-156.998 934.964V935.574L-100.387 968.258L-156.998 1000.94V1001.55L-99.859 968.563L-27.473 1010.36L-99.857 1052.15L-156.999 1019.15V1019.77L-100.385 1052.45L-156.999 1085.14V1085.75L-99.857 1052.75L-27.471 1094.55L-99.856 1136.34L-156.999 1103.35V1103.96L-100.384 1136.65L-156.999 1169.33V1169.94L-99.856 1136.95L-27.47 1178.74L-99.854 1220.53L-156.999 1187.54V1188.15L-100.382 1220.84L-156.999 1253.53V1254.13L-99.854 1221.14L-27.468 1262.93L-99.852 1304.73L-156.999 1271.73V1272.34L-100.379 1305.03L-156.999 1337.72V1338.33L-99.852 1305.33L-27.466 1347.13L-99.851 1388.92L-157 1355.92V1356.53L-100.379 1389.22L-157 1421.91V1422.52L-99.85 1389.52L-27.464 1431.31L-35.587 1436H-34.529L-26.937 1431.61L-19.343 1436H-18.287L-26.408 1431.31L45.976 1389.52L118.362 1431.31L110.244 1436H111.3L118.891 1431.61L126.481 1436H127.537L119.419 1431.31L191.806 1389.54L264.191 1431.33L256.074 1436.01H257.13L264.719 1431.63L272.308 1436.01H273.365L265.247 1431.33L337.632 1389.54L410.018 1431.33L401.904 1436.01H402.959L410.545 1431.63L418.131 1436.01H419.187L411.073 1431.33L483.457 1389.54L555.843 1431.33L547.731 1436.01H548.787L556.371 1431.64L563.955 1436.01H565.012L556.899 1431.33L629.284 1389.54L701.669 1431.33L693.558 1436.01H694.616L702.199 1431.64L709.781 1436.01H710.837L702.728 1431.33L775.112 1389.54L847.498 1431.33L839.39 1436.01H840.446L848.026 1431.64L855.607 1436.01H856.663L848.555 1431.33L920.939 1389.54L978.07 1422.52V1422.51L993.316 1431.32L985.195 1436.01H986.252L993.844 1431.63L1001.44 1436.01H1002.49L994.373 1431.32L1066.76 1389.53L1139.14 1431.33L1131.02 1436.01H1132.08L1139.67 1431.63L1147.26 1436.01H1148.32L1140.2 1431.33L1212.58 1389.53L1284.97 1431.33L1276.85 1436.01H1277.91L1285.49 1431.63L1293.08 1436.01H1294.14L1286.02 1431.33L1358.41 1389.54L1430.79 1431.33L1422.68 1436.01H1423.73L1431.32 1431.63L1438.91 1436.01H1439.96L1431.85 1431.33L1504.23 1389.54L1576.62 1431.33L1568.51 1436.01H1569.56L1577.15 1431.63L1584.73 1436.01H1585.79L1577.68 1431.33L1650.06 1389.54L1722.44 1431.33L1714.33 1436.01H1715.39L1722.97 1431.64L1730.56 1436.01H1731.61L1723.5 1431.33L1795.89 1389.54L1868.27 1431.33L1860.16 1436.01H1861.22L1868.8 1431.64L1876.38 1436.01H1877.44L1869.33 1431.33L1941.72 1389.54L1998.85 1422.53V1421.92L1942.25 1389.24L1998.85 1356.56V1355.95L1941.72 1388.93L1869.33 1347.14L1941.71 1305.35L1998.85 1338.34V1337.73L1942.25 1305.05L1998.85 1272.37V1271.76L1941.71 1304.74L1869.33 1262.95L1941.71 1221.16L1998.85 1254.15V1253.54L1942.24 1220.85L1998.85 1188.17V1187.56L1941.71 1220.55L1869.32 1178.75L1941.7 1136.96L1998.84 1169.95V1169.34L1942.23 1136.66L1998.84 1103.98V1103.37L1941.7 1136.35L1869.32 1094.56L1941.7 1052.77L1998.84 1085.76V1085.15L1942.23 1052.46L1998.84 1019.78V1019.17L1941.7 1052.16L1869.32 1010.37L1941.7 968.578L1998.84 1001.57V1000.96L1942.23 968.274L1998.84 935.588V934.979L1941.7 967.968L1869.32 926.177L1941.7 884.386L1998.84 917.378V916.769L1942.23 884.082L1998.84 851.395V850.785L1941.7 883.776L1869.32 841.984L1941.7 800.194L1998.84 833.187V832.577L1942.23 799.889L1998.84 767.202V766.592L1941.7 799.585L1869.31 757.793L1941.7 716.002L1998.84 748.996V748.386L1942.23 715.698L1998.84 683.008V682.4L1941.7 715.394L1869.33 673.614L1941.72 631.825L1998.84 664.808V664.196L1942.24 631.519L1998.84 598.84V598.204L1941.7 631.204L1869.33 589.424L1941.71 547.635L1998.84 580.621V580.012L1942.24 547.331L1998.84 514.65V514.04L1941.71 547.026L1869.33 505.233L1941.71 463.443L1998.85 496.43V495.82L1942.24 463.138L1998.85 430.457V429.847L1941.71 462.834L1869.32 421.036L1941.7 379.245L1998.84 412.234V411.624L1942.23 378.941L1998.84 346.257V345.645L1941.7 378.632L1869.32 336.845L1941.7 295.055L1998.84 328.044V327.434L1942.23 294.749L1998.84 262.064V261.454L1941.7 294.444L1869.32 252.651L1941.7 210.861L1998.84 243.851V243.242L1942.23 210.556L1998.84 177.87V177.26L1941.7 210.251L1869.32 168.459L1941.7 126.669L1998.84 159.659V159.049L1942.23 126.362L1998.84 93.6758V93.0659L1941.7 126.058L1869.32 84.2661L1941.7 42.4751L1998.84 75.4683V74.8579L1942.23 42.1709L1998.84 9.48291V8.875L1941.7 41.8672L1869.31 0.0751953L1941.7 -41.7158L1998.84 -8.72217V-9.33203L1942.23 -42.021L1998.84 -74.71V-75.3198L1941.7 -42.3262L1869.31 -84.1182L1941.7 -125.908L1998.85 -92.9082V-93.5181L1942.23 -126.208L1998.85 -158.898L1998.84 -159.515ZM1868.25 -84.1147L1795.87 -42.3242L1723.48 -84.1162L1795.87 -125.907L1868.25 -84.1147ZM920.932 1388.92L863.782 1355.92V1355.93L848.546 1347.13L920.93 1305.34L978.063 1338.33V1338.32L993.316 1347.13L920.932 1388.92ZM920.916 -125.909L978.066 -92.9092V-92.918L993.302 -84.1182L920.916 -42.335L863.783 -75.3198V-75.313L848.53 -84.1201L920.916 -125.909ZM920.934 1304.73L863.785 1271.74V1271.74L848.548 1262.94L920.932 1221.15L978.066 1254.14V1254.13L993.316 1262.94L920.934 1304.73ZM920.916 -41.7158L978.063 -8.72217V-8.72998L993.3 0.0698242L920.916 41.8569L863.782 8.87109V8.87793L848.532 0.078125L920.916 -41.7158ZM920.929 1220.54L863.783 1187.54V1187.55L848.543 1178.75L920.927 1136.96L978.064 1169.95V1169.94L993.316 1178.75L920.929 1220.54ZM920.916 42.4761L978.061 75.4692V75.4609L993.301 84.2612L920.916 126.05L863.779 93.062V93.0698L848.531 84.27L920.916 42.4761ZM920.924 1136.35L863.78 1103.35V1103.36L848.538 1094.56L920.922 1052.77L978.061 1085.76V1085.75L993.308 1094.55L920.924 1136.35ZM920.916 126.669L978.06 159.659V159.651L993.302 168.451L920.922 210.245L863.783 177.256V177.264L848.537 168.464L920.916 126.669ZM920.916 1052.15L863.774 1019.16V1019.17L848.53 1010.37L920.914 968.578L978.055 1001.57V1001.56L993.299 1010.36L920.916 1052.15ZM920.916 210.861L978.057 243.851V243.842L993.301 252.642L920.917 294.433L863.783 261.445V261.453L848.539 252.653L920.916 210.861ZM920.916 967.961L863.777 934.972V934.98L848.531 926.18L920.913 884.389L978.057 917.381V917.372L993.299 926.172L920.916 967.961ZM920.916 295.054L978.055 328.043V328.035L993.302 336.835L920.918 378.626L863.774 345.634V345.643L848.532 336.843L920.916 295.054ZM920.916 883.768L863.779 850.78V850.788L848.531 841.988L920.915 800.198L978.06 833.191V833.183L993.3 841.983L920.916 883.768ZM920.923 379.246L978.06 412.235V412.226L993.309 421.026L920.925 462.818L863.779 429.824V429.832L848.539 421.032L920.923 379.246ZM920.913 799.577L863.779 766.59V766.598L848.529 757.798L920.913 716.007L978.06 749.001V748.993L993.297 757.793L920.913 799.577ZM920.925 463.439L978.059 496.426V496.417L993.316 505.221L920.932 547.013L863.783 514.013V514.023L848.546 505.223L920.925 463.439ZM920.912 715.384L863.779 682.399V682.407L848.548 673.613L920.929 631.824L978.06 664.807V664.799L993.294 673.599L920.912 715.384ZM920.926 547.631L978.059 580.617V580.608L993.29 589.403L920.916 631.19L863.785 598.206V598.216L848.551 589.416L920.926 547.631ZM1139.67 589.721L1212.03 631.5L1139.65 673.29L1067.29 631.51L1139.67 589.721ZM978.059 598.839V598.831L993.841 589.72L1066.21 631.499L993.824 673.289L921.468 631.513L978.059 598.839ZM848.016 589.726L920.373 631.502L863.779 664.175V664.184L847.998 673.295L775.633 631.516L848.016 589.726ZM702.191 589.726L774.556 631.505L702.175 673.296L629.81 631.516L702.191 589.726ZM556.366 589.726L628.729 631.505L556.348 673.295L483.983 631.516L556.366 589.726ZM1285.48 673.292L1213.11 631.513L1285.49 589.723L1357.86 631.502L1285.48 673.292ZM1284.94 589.406L1212.56 631.195L1140.2 589.415L1212.58 547.625L1284.94 589.406ZM1147.27 584.72H1147.23L1139.65 589.098L1132.07 584.72L1067.29 547.32L1139.67 505.529L1212.06 547.321L1147.27 584.72ZM1139.12 589.405L1066.74 631.193L994.372 589.414L1066.75 547.624L1139.12 589.405ZM1001.45 584.72H1001.4L993.822 589.097L986.241 584.72L921.466 547.32L978.066 514.644V514.635L993.845 505.525L1066.23 547.317L1001.45 584.72ZM920.393 547.32L863.78 580.006V580.012L855.632 584.717H855.59L847.996 589.102L840.402 584.717L775.632 547.323L848.016 505.532L920.393 547.32ZM847.467 589.408L775.086 631.197L702.721 589.418L775.102 547.63L847.467 589.408ZM709.806 584.718H709.763L702.172 589.101L694.581 584.718L629.81 547.318L702.194 505.527L774.58 547.319L709.806 584.718ZM701.642 589.407L629.261 631.197L556.896 589.417L629.277 547.627L701.642 589.407ZM563.978 584.718H563.935L556.346 589.1L548.757 584.718L483.983 547.318L556.368 505.528L628.754 547.32L563.978 584.718ZM548.741 678.294H548.784L556.368 673.915L563.952 678.294L628.73 715.694L556.346 757.484L483.96 715.692L548.741 678.294ZM556.899 673.609L629.28 631.82L701.643 673.599L629.262 715.389L556.899 673.609ZM694.568 678.294H694.611L702.194 673.916L709.776 678.294L774.555 715.694L702.171 757.485L629.785 715.693L694.568 678.294ZM702.724 673.61L775.105 631.821L847.47 673.6L775.089 715.39L702.724 673.61ZM840.396 678.294H840.439L848.019 673.917L855.6 678.294L920.376 715.694L863.776 748.37V748.378L847.998 757.488L775.616 715.694L840.396 678.294ZM921.449 715.694L978.062 683.008V683L986.21 678.3H986.253L993.845 673.916L1001.44 678.3L1066.21 715.694L993.824 757.486L921.449 715.694ZM994.376 673.606L1066.76 631.817L1139.12 673.597L1066.74 715.386L994.376 673.606ZM1132.04 678.296H1132.08L1139.67 673.913L1147.26 678.296L1212.03 715.696L1139.65 757.487L1067.26 715.695L1132.04 678.296ZM1140.2 673.607L1212.58 631.819L1284.95 673.598L1212.57 715.389L1140.2 673.607ZM1277.86 678.296H1277.91L1285.5 673.915L1293.09 678.296L1357.86 715.696L1285.48 757.486L1213.09 715.694L1277.86 678.296ZM1293.1 584.72H1293.06L1285.47 589.099L1277.89 584.72L1213.11 547.32L1285.49 505.529L1357.88 547.321L1293.1 584.72ZM1285.49 504.92L1213.1 463.128L1285.49 421.338L1357.87 463.129L1285.49 504.92ZM1284.96 505.22L1212.58 547.011L1140.19 505.219L1212.58 463.427L1284.96 505.22ZM1139.66 504.914L1067.28 463.122L1139.66 421.332L1212.05 463.123L1139.66 504.914ZM1139.13 505.214L1066.75 547.004L994.365 505.212L1066.75 463.421L1139.13 505.214ZM993.834 504.907L921.455 463.119L978.055 430.442V430.432L993.832 421.324L1066.22 463.116L993.834 504.907ZM920.385 463.119L863.774 495.803V495.812L848.008 504.912L775.622 463.121L848.007 421.329L920.385 463.119ZM847.48 505.219L775.096 547.011L702.716 505.227L775.1 463.436L847.48 505.219ZM702.18 504.913L629.794 463.121L702.178 421.331L774.564 463.123L702.18 504.913ZM701.652 505.213L629.268 547.005L556.882 505.213L629.266 463.421L701.652 505.213ZM556.352 504.907L483.966 463.115L556.35 421.324L628.736 463.115L556.352 504.907ZM555.823 505.207L483.439 546.998L411.054 505.206L483.438 463.414L555.823 505.207ZM555.804 589.388L483.423 631.177L411.059 589.398L483.44 547.608L555.804 589.388ZM410.528 589.703L482.893 631.482L410.512 673.272L338.148 631.493L410.528 589.703ZM411.061 673.589L483.442 631.8L555.807 673.579L483.426 715.369L411.061 673.589ZM555.812 757.77L483.428 799.562L411.042 757.77L483.426 715.979L555.812 757.77ZM556.34 758.07L628.726 799.863L556.342 841.653L483.956 799.862L556.34 758.07ZM556.868 757.77L629.252 715.979L701.638 757.771L629.254 799.562L556.868 757.77ZM702.168 758.077L774.554 799.869L702.17 841.659L629.784 799.868L702.168 758.077ZM702.696 757.771L775.08 715.979L847.466 757.772L775.082 799.563L702.696 757.771ZM847.996 758.078L920.374 799.865L863.774 832.542V832.551L847.998 841.659L775.612 799.867L847.996 758.078ZM921.445 799.865L978.055 767.182V767.173L993.821 758.073L1066.21 799.864L993.822 841.656L921.445 799.865ZM994.345 757.765L1066.73 715.973L1139.11 757.765L1066.73 799.557L994.345 757.765ZM1139.65 758.071L1212.03 799.863L1139.65 841.653L1067.26 799.861L1139.65 758.071ZM1140.17 757.766L1212.56 715.975L1284.94 757.767L1212.56 799.558L1140.17 757.766ZM1285.47 758.072L1357.86 799.864L1285.48 841.654L1213.09 799.863L1285.47 758.072ZM1286 757.772L1358.39 715.981L1430.77 757.773L1358.39 799.565L1286 757.772ZM1286.02 673.591L1358.4 631.802L1430.77 673.581L1358.39 715.371L1286.02 673.591ZM1431.3 673.276L1358.93 631.497L1431.31 589.707L1503.68 631.486L1431.3 673.276ZM1430.76 589.39L1358.38 631.18L1286.02 589.4L1358.4 547.612L1430.76 589.39ZM1286.02 505.224L1358.4 463.432L1430.79 505.225L1358.4 547.016L1286.02 505.224ZM1358.4 462.824L1286.02 421.033L1358.4 379.241L1430.79 421.033L1358.4 462.824ZM1285.49 420.724L1213.1 378.931L1285.48 337.14L1357.87 378.932L1285.49 420.724ZM1284.96 421.024L1212.57 462.814L1140.19 421.023L1212.57 379.231L1284.96 421.024ZM1139.66 420.718L1067.27 378.926L1139.66 337.134L1212.04 378.926L1139.66 420.718ZM1139.13 421.023L1066.75 462.814L994.36 421.021L1066.74 379.23L1139.13 421.023ZM993.83 420.716L921.451 378.928L978.051 346.248V346.241L993.825 337.133L1066.21 378.925L993.83 420.716ZM920.381 378.928L863.772 411.61V411.618L848.005 420.718L775.619 378.926L848.016 337.145L920.381 378.928ZM847.481 421.028L775.096 462.82L702.716 421.035L775.101 379.244L847.481 421.028ZM702.181 420.722L629.795 378.93L702.18 337.14L774.565 378.932L702.181 420.722ZM701.653 421.027L629.269 462.817L556.883 421.026L629.267 379.234L701.653 421.027ZM556.353 420.721L483.967 378.929L556.351 337.138L628.737 378.93L556.353 420.721ZM555.825 421.021L483.441 462.812L411.055 421.02L483.439 379.228L555.825 421.021ZM410.525 420.715L338.14 378.923L410.524 337.132L482.909 378.924L410.525 420.715ZM410.525 421.324L482.911 463.116L410.527 504.906L338.14 463.114L410.525 421.324ZM482.912 547.307L418.139 584.707H418.096L410.51 589.088L402.924 584.707L338.148 547.307L410.533 505.516L482.912 547.307ZM402.916 678.294H402.959L410.545 673.914L418.131 678.294L482.908 715.694L410.524 757.484L338.138 715.692L402.916 678.294ZM482.916 799.885L410.532 841.675L338.147 799.884L410.529 758.092L482.916 799.885ZM482.916 884.077L410.532 925.868L338.146 884.076L410.53 842.285L482.916 884.077ZM411.059 841.977L483.441 800.188L555.827 841.978L483.445 883.77L411.059 841.977ZM556.359 842.284L628.745 884.076L556.363 925.867L483.977 884.075L556.359 842.284ZM556.888 841.978L629.272 800.189L701.658 841.98L629.274 883.771L556.888 841.978ZM702.188 842.285L774.574 884.077L702.19 925.868L629.804 884.076L702.188 842.285ZM702.716 841.98L775.1 800.19L847.486 841.981L775.102 883.772L702.716 841.98ZM848.016 842.286L920.395 884.073L863.795 916.753V916.761L848.02 925.869L775.634 884.077L848.016 842.286ZM921.466 884.073L978.074 851.391V851.382L993.841 842.282L1066.23 884.074L993.844 925.866L921.466 884.073ZM994.366 841.973L1066.75 800.181L1139.14 841.974L1066.75 883.766L994.366 841.973ZM1139.67 842.28L1212.05 884.072L1139.67 925.863L1067.28 884.071L1139.67 842.28ZM1140.19 841.975L1212.58 800.184L1284.96 841.976L1212.58 883.768L1140.19 841.975ZM1285.49 842.281L1357.88 884.073L1285.49 925.864L1213.11 884.072L1285.49 842.281ZM1286.02 841.976L1358.41 800.185L1430.79 841.977L1358.41 883.769L1286.02 841.976ZM1431.32 842.283L1503.71 884.075L1431.32 925.866L1358.94 884.074L1431.32 842.283ZM1358.94 799.883L1431.32 758.091L1503.71 799.883L1431.32 841.673L1358.94 799.883ZM1358.94 715.69L1423.71 678.29H1423.75L1431.34 673.91L1438.93 678.29L1503.7 715.69L1431.32 757.48L1358.94 715.69ZM1438.95 584.717H1438.9L1431.32 589.098L1423.73 584.717L1358.96 547.317L1431.32 505.53L1503.7 547.321L1438.95 584.717ZM1358.95 463.126L1431.33 421.336L1503.72 463.128L1431.32 504.92L1358.95 463.126ZM1431.33 420.726L1358.94 378.934L1431.32 337.145L1503.7 378.937L1431.33 420.726ZM1431.33 336.534L1358.94 294.742L1431.32 252.952L1503.7 294.744L1431.33 336.534ZM1430.8 336.834L1358.42 378.625L1286.03 336.834L1358.42 295.042L1430.8 336.834ZM1285.5 336.529L1213.12 294.737L1285.5 252.946L1357.89 294.738L1285.5 336.529ZM1284.97 336.834L1212.59 378.624L1140.2 336.832L1212.59 295.042L1284.97 336.834ZM1139.67 336.527L1067.28 294.745L1139.66 252.953L1212.05 294.745L1139.67 336.527ZM1139.15 336.827L1066.76 378.619L994.376 336.827L1066.76 295.037L1139.15 336.827ZM993.846 336.522L921.459 294.745L978.059 262.065V262.057L993.831 252.95L1066.22 294.742L993.846 336.522ZM920.389 294.745L863.782 327.426V327.434L848.012 336.539L775.627 294.745L848.011 252.954L920.389 294.745ZM847.489 336.845L775.105 378.637L702.716 336.845L775.1 295.054L847.489 336.845ZM702.189 336.545L629.802 294.745L702.186 252.954L774.572 294.746L702.189 336.545ZM701.661 336.845L629.276 378.637L556.889 336.845L629.274 295.053L701.661 336.845ZM556.361 336.539L483.976 294.745L556.36 252.954L628.746 294.746L556.361 336.539ZM555.833 336.839L483.449 378.63L411.064 336.845L483.448 295.053L555.833 336.839ZM410.533 336.534L338.151 294.745L410.535 252.954L482.916 294.745L410.533 336.534ZM410.005 336.834L337.621 378.625L265.236 336.834L337.62 295.042L410.005 336.834ZM337.621 379.234L410.007 421.026L337.623 462.816L265.237 421.025L337.621 379.234ZM337.621 463.426L410.016 505.225L337.632 547.016L265.246 505.224L337.621 463.426ZM409.988 589.399L337.607 631.189L265.242 589.409L337.623 547.621L409.988 589.399ZM264.712 589.715L337.075 631.494L264.694 673.284L192.336 631.511L264.712 589.715ZM265.243 673.6L337.625 631.811L409.99 673.59L337.608 715.38L265.243 673.6ZM409.993 757.782L337.616 799.58L265.23 757.788L337.614 715.997L409.993 757.782ZM409.993 841.974L337.616 883.771L265.23 841.979L337.614 800.188L409.993 841.974ZM409.993 926.166L337.616 967.964L265.23 926.171L337.614 884.382L409.993 926.166ZM410.521 926.471L482.907 968.263L410.523 1010.05L338.137 968.262L410.521 926.471ZM411.049 926.166L483.434 884.376L555.819 926.167L483.446 967.965L411.049 926.166ZM556.349 926.472L628.734 968.264L556.35 1010.06L483.965 968.263L556.349 926.472ZM556.877 926.172L629.261 884.382L701.646 926.175L629.264 967.964L556.877 926.172ZM702.177 926.48L774.562 968.271L702.18 1010.06L629.794 968.27L702.177 926.48ZM702.705 926.174L775.089 884.384L847.475 926.176L775.091 967.965L702.705 926.174ZM848.005 926.481L920.384 968.269L863.784 1000.95V1000.96L848.012 1010.06L775.626 968.272L848.005 926.481ZM921.455 968.269L978.06 935.587V935.578L993.831 926.478L1066.22 968.27L993.832 1010.06L921.455 968.269ZM994.355 926.169L1066.74 884.379L1139.12 926.171L1066.74 967.961L994.355 926.169ZM1139.66 926.475L1212.04 968.268L1139.66 1010.06L1067.27 968.266L1139.66 926.475ZM1140.18 926.175L1212.57 884.385L1284.95 926.175L1212.57 967.967L1140.18 926.175ZM1285.48 926.481L1357.87 968.273L1285.48 1010.06L1213.1 968.272L1285.48 926.481ZM1286.01 926.175L1358.4 884.386L1430.78 926.177L1358.4 967.969L1286.01 926.175ZM1431.31 926.482L1503.7 968.274L1431.32 1010.06L1358.93 968.269L1431.31 926.482ZM1431.84 926.177L1504.22 884.387L1576.61 926.178L1504.23 967.969L1431.84 926.177ZM1431.84 841.985L1504.22 800.196L1576.61 841.986L1504.23 883.778L1431.84 841.985ZM1431.84 757.793L1504.22 716.002L1576.61 757.794L1504.23 799.586L1431.84 757.793ZM1431.86 673.613L1504.24 631.824L1576.6 673.603L1504.22 715.393L1431.86 673.613ZM1577.14 673.297L1504.77 631.518L1577.15 589.729L1649.52 631.508L1577.14 673.297ZM1576.6 589.412L1504.22 631.195L1431.85 589.416L1504.23 547.626L1576.6 589.412ZM1431.85 505.23L1504.24 463.438L1576.62 505.23L1504.24 547.021L1431.85 505.23ZM1431.85 421.038L1504.24 379.246L1576.62 421.038L1504.24 462.829L1431.85 421.038ZM1504.24 378.638L1431.85 336.847L1504.23 295.055L1576.62 336.845L1504.24 378.638ZM1504.24 294.446L1431.84 252.645L1504.23 210.853L1576.61 252.645L1504.24 294.446ZM1431.32 252.345L1358.93 210.553L1431.32 168.762L1503.7 210.554L1431.32 252.345ZM1430.79 252.645L1358.4 294.436L1286.02 252.645L1358.4 210.854L1430.79 252.645ZM1285.49 252.338L1213.1 210.547L1285.49 168.756L1357.87 210.548L1285.49 252.338ZM1284.96 252.644L1212.58 294.435L1140.19 252.645L1212.57 210.854L1284.96 252.644ZM1139.66 252.337L1067.28 210.545L1139.66 168.755L1212.05 210.547L1139.66 252.337ZM1139.13 252.643L1066.75 294.433L994.365 252.645L1066.75 210.855L1139.13 252.643ZM993.832 252.337L921.454 210.549L978.059 177.868V177.86L993.83 168.755L1066.22 210.545L993.832 252.337ZM920.383 210.549L863.783 243.23V243.239L848.011 252.345L775.625 210.553L848.009 168.761L920.383 210.549ZM847.483 252.649L775.099 294.445L702.716 252.645L775.1 210.855L847.483 252.649ZM702.183 252.341L629.797 210.551L702.181 168.759L774.566 210.551L702.183 252.341ZM701.654 252.647L629.273 294.445L556.888 252.645L629.272 210.855L701.654 252.647ZM556.354 252.34L483.969 210.549L556.353 168.758L628.738 210.551L556.354 252.34ZM555.826 252.645L483.442 294.436L411.062 252.645L483.446 210.853L555.826 252.645ZM410.526 252.34L338.14 210.548L410.524 168.757L482.91 210.549L410.526 252.34ZM409.998 252.64L337.614 294.431L265.237 252.645L337.621 210.854L409.998 252.64ZM264.698 252.333L192.312 210.542L264.696 168.751L337.082 210.543L264.698 252.333ZM337.083 294.733L264.699 336.525L192.326 294.745L264.71 252.954L337.083 294.733ZM337.083 378.925L264.716 420.727L192.33 378.934L264.714 337.143L337.083 378.925ZM264.699 421.325L337.085 463.116L264.716 504.919L192.33 463.127L264.699 421.325ZM264.699 505.517L337.085 547.309L272.311 584.709H272.267L264.682 589.088L257.098 584.709L192.321 547.309L264.699 505.517ZM257.071 678.283H257.114L264.703 673.902L272.292 678.283L337.065 715.683L264.681 757.473L192.316 715.69L257.071 678.283ZM337.071 799.873L264.687 841.663L192.316 799.883L264.7 758.091L337.071 799.873ZM337.071 884.065L264.687 925.856L192.316 884.075L264.7 842.284L337.071 884.065ZM337.071 968.258L264.687 1010.05L192.301 968.257L264.685 926.465L337.071 968.258ZM337.071 1052.45L264.687 1094.24L192.326 1052.46L264.71 1010.67L337.071 1052.45ZM265.214 1010.35L337.598 968.559L409.984 1010.35L337.6 1052.14L265.214 1010.35ZM410.514 1010.66L482.9 1052.45L410.515 1094.24L338.13 1052.45L410.514 1010.66ZM411.042 1010.35L483.426 968.56L555.812 1010.35L483.428 1052.14L411.042 1010.35ZM556.342 1010.66L628.728 1052.45L556.344 1094.24L483.958 1052.45L556.342 1010.66ZM556.871 1010.36L629.255 968.565L701.64 1010.36L629.256 1052.15L556.871 1010.36ZM702.171 1010.66L774.557 1052.45L702.173 1094.25L629.787 1052.45L702.171 1010.66ZM702.699 1010.36L775.083 968.57L847.469 1010.36L775.085 1052.15L702.699 1010.36ZM847.999 1010.67L920.378 1052.46L863.771 1085.14V1085.15L848.001 1094.25L775.615 1052.46L847.999 1010.67ZM921.448 1052.46L978.048 1019.77V1019.77L993.82 1010.66L1066.21 1052.45L993.838 1094.25L921.448 1052.46ZM994.353 1010.36L1066.74 968.564L1139.12 1010.36L1066.74 1052.15L994.353 1010.36ZM1139.65 1010.66L1212.04 1052.45L1139.65 1094.24L1067.27 1052.45L1139.65 1010.66ZM1140.18 1010.36L1212.57 968.565L1284.95 1010.36L1212.57 1052.15L1140.18 1010.36ZM1285.48 1010.66L1357.87 1052.45L1285.48 1094.25L1213.1 1052.45L1285.48 1010.66ZM1286.01 1010.36L1358.39 968.571L1430.78 1010.36L1358.4 1052.15L1286.01 1010.36ZM1431.31 1010.67L1503.7 1052.46L1431.32 1094.25L1358.93 1052.46L1431.31 1010.67ZM1431.84 1010.36L1504.22 968.572L1576.61 1010.36L1504.22 1052.15L1431.84 1010.36ZM1577.14 1010.67L1649.52 1052.46L1577.14 1094.25L1504.75 1052.46L1577.14 1010.67ZM1577.14 1010.06L1504.75 968.267L1577.14 926.475L1649.52 968.267L1577.14 1010.06ZM1504.75 884.075L1577.13 842.284L1649.52 884.076L1577.14 925.867L1504.75 884.075ZM1504.75 799.883L1577.13 758.091L1649.52 799.884L1577.14 841.674L1504.75 799.883ZM1504.75 715.69L1569.53 678.29H1569.57L1577.15 673.911L1584.74 678.29L1649.51 715.69L1577.13 757.48L1504.75 715.69ZM1584.76 584.716H1584.72L1577.13 589.098L1569.54 584.716L1504.77 547.316L1577.15 505.526L1649.54 547.318L1584.76 584.716ZM1504.76 463.128L1577.15 421.337L1649.53 463.128L1577.15 504.92L1504.76 463.128ZM1504.76 378.935L1577.15 337.144L1649.53 378.936L1577.15 420.728L1504.76 378.935ZM1577.15 336.535L1504.76 294.743L1577.15 252.952L1649.53 294.744L1577.15 336.535ZM1577.15 252.341L1504.76 210.55L1577.15 168.759L1649.53 210.552L1577.15 252.341ZM1504.76 126.356L1577.14 84.5669L1649.53 126.359L1577.15 168.149L1504.76 126.356ZM1576.62 168.456L1504.23 210.247L1431.85 168.455L1504.23 126.663L1576.62 168.456ZM1431.32 168.149L1358.93 126.357L1431.32 84.5669L1503.7 126.357L1431.32 168.149ZM1430.79 168.455L1358.4 210.245L1286.02 168.453L1358.4 126.662L1430.79 168.455ZM1285.49 168.148L1213.1 126.356L1285.49 84.5649L1357.87 126.357L1285.49 168.148ZM1284.96 168.448L1212.58 210.239L1140.19 168.447L1212.57 126.656L1284.96 168.448ZM1139.66 168.142L1067.27 126.35L1139.66 84.5601L1212.04 126.352L1139.66 168.142ZM1139.13 168.442L1066.75 210.245L994.362 168.453L1066.75 126.662L1139.13 168.442ZM993.832 168.136L921.453 126.348L978.061 93.666V93.6562L993.828 84.5562L1066.22 126.355L993.832 168.136ZM920.382 126.348L863.782 159.027V159.036L848.007 168.142L775.621 126.351L848.005 84.5591L920.382 126.348ZM847.482 168.448L775.097 210.245L702.711 168.453L775.095 126.663L847.482 168.448ZM702.182 168.141L629.796 126.35L702.18 84.5581L774.566 126.35L702.182 168.141ZM701.653 168.446L629.272 210.245L556.886 168.453L629.27 126.663L701.653 168.446ZM556.353 168.14L483.967 126.347L556.349 84.5581L628.735 126.35L556.353 168.14ZM555.824 168.445L483.446 210.245L411.06 168.453L483.445 126.661L555.824 168.445ZM410.524 168.138L338.138 126.346L410.522 84.5562L482.908 126.346L410.524 168.138ZM409.996 168.444L337.616 210.245L265.23 168.453L337.614 126.662L409.996 168.444ZM264.696 168.137L192.316 126.357L264.7 84.5659L337.086 126.358L264.696 168.137ZM264.168 168.437L191.794 210.245L119.409 168.453L191.793 126.662L264.168 168.437ZM264.168 252.63L191.784 294.421L119.411 252.645L191.795 210.854L264.168 252.63ZM264.168 336.823L191.784 378.613L119.416 336.837L191.8 295.047L264.168 336.823ZM264.168 421.015L191.783 462.805L119.416 421.031L191.8 379.239L264.168 421.015ZM191.784 463.415L264.169 505.207L191.803 547.015L119.416 505.223L191.784 463.415ZM191.784 547.607L264.147 589.388L191.786 631.193L119.421 589.413L191.784 547.607ZM118.871 589.707L191.236 631.486L118.855 673.276L46.49 631.496L118.871 589.707ZM119.405 673.592L191.786 631.804L264.149 673.583L191.768 715.374L119.405 673.592ZM264.154 757.774L191.77 799.565L119.384 757.773L191.768 715.982L264.154 757.774ZM264.154 841.966L191.77 883.758L119.384 841.966L191.768 800.175L264.154 841.966ZM264.154 926.158L191.769 967.95L119.384 926.158L191.768 884.368L264.154 926.158ZM264.154 1010.35L191.77 1052.14L119.384 1010.35L191.768 968.56L264.154 1010.35ZM264.154 1094.54L191.799 1136.35L119.416 1094.56L191.8 1052.77L264.154 1094.54ZM264.682 1094.85L337.068 1136.64L264.716 1178.44L192.33 1136.65L264.682 1094.85ZM265.211 1094.54L337.595 1052.75L409.98 1094.54L337.596 1136.33L265.211 1094.54ZM410.511 1094.85L482.896 1136.64L410.538 1178.44L338.153 1136.65L410.511 1094.85ZM411.039 1094.55L483.423 1052.76L555.809 1094.55L483.425 1136.34L411.039 1094.55ZM556.339 1094.86L628.725 1136.65L556.341 1178.44L483.955 1136.65L556.339 1094.86ZM556.867 1094.56L629.252 1052.77L701.638 1094.56L629.253 1136.35L556.867 1094.56ZM702.167 1094.86L774.552 1136.65L702.189 1178.44L629.803 1136.65L702.167 1094.86ZM702.695 1094.56L775.079 1052.77L847.465 1094.56L775.081 1136.35L702.695 1094.56ZM847.995 1094.86L920.374 1136.65L863.765 1169.33V1169.34L847.998 1178.44L775.612 1136.65L847.995 1094.86ZM921.444 1136.65L978.044 1103.97V1103.96L993.818 1094.86L1066.2 1136.65L993.84 1178.44L921.444 1136.65ZM994.344 1094.55L1066.73 1052.76L1139.11 1094.55L1066.75 1136.35L994.344 1094.55ZM1139.64 1094.86L1212.03 1136.65L1139.67 1178.44L1067.28 1136.65L1139.64 1094.86ZM1140.17 1094.56L1212.56 1052.77L1284.94 1094.56L1212.56 1136.35L1140.17 1094.56ZM1285.47 1094.86L1357.86 1136.66L1285.47 1178.45L1213.09 1136.65L1285.47 1094.86ZM1286 1094.56L1358.39 1052.77L1430.77 1094.56L1358.39 1136.35L1286 1094.56ZM1431.3 1094.87L1503.69 1136.66L1431.32 1178.44L1358.93 1136.65L1431.3 1094.87ZM1431.83 1094.56L1504.21 1052.77L1576.6 1094.57L1504.22 1136.36L1431.83 1094.56ZM1577.13 1094.87L1649.52 1136.66L1577.13 1178.45L1504.74 1136.66L1577.13 1094.87ZM1577.66 1094.57L1650.04 1052.78L1722.43 1094.57L1650.04 1136.36L1577.66 1094.57ZM1650.04 1052.17L1577.66 1010.38L1650.04 968.588L1722.43 1010.38L1650.04 1052.17ZM1650.04 967.978L1577.66 926.186L1650.04 884.396L1722.43 926.189L1650.04 967.978ZM1577.65 841.993L1650.04 800.204L1722.42 841.995L1650.04 883.786L1577.65 841.993ZM1577.65 757.801L1650.04 716.01L1722.42 757.802L1650.04 799.593L1577.65 757.801ZM1577.67 673.621L1650.05 631.832L1722.42 673.611L1650.04 715.401L1577.67 673.621ZM1722.95 673.306L1650.59 631.526L1722.97 589.737L1795.33 631.516L1722.95 673.306ZM1722.42 589.42L1650.04 631.21L1577.67 589.43L1650.05 547.64L1722.42 589.42ZM1577.67 505.238L1650.05 463.446L1722.44 505.238L1650.05 547.03L1577.67 505.238ZM1577.67 421.046L1650.05 379.254L1722.44 421.047L1650.05 462.837L1577.67 421.046ZM1577.67 336.854L1650.05 295.062L1722.44 336.854L1650.05 378.646L1577.67 336.854ZM1650.05 294.454L1577.67 252.645L1650.05 210.855L1722.44 252.645L1650.05 294.454ZM1650.05 210.262L1577.67 168.47L1650.05 126.68L1722.44 168.471L1650.05 210.262ZM1577.66 84.2778L1650.05 42.4868L1722.43 84.2788L1650.05 126.071L1577.66 84.2778ZM1577.14 83.9731L1504.75 42.1812L1577.13 0.39209L1649.52 42.1821L1577.14 83.9731ZM1576.61 84.2778L1504.22 126.069L1431.84 84.2769L1504.22 42.4858L1576.61 84.2778ZM1431.31 83.9722L1358.92 42.1802L1431.31 0.390137L1503.69 42.1812L1431.31 83.9722ZM1430.78 84.272L1358.4 126.063L1286.01 84.271L1358.39 42.48L1430.78 84.272ZM1285.48 83.9658L1213.09 42.1738L1285.48 0.383789L1357.86 42.1748L1285.48 83.9658ZM1284.95 84.2661L1212.57 126.057L1140.18 84.2651L1212.56 42.4731L1284.95 84.2661ZM1139.65 83.96L1067.26 42.168L1139.65 0.375977L1212.03 42.1689L1139.65 83.96ZM1139.12 84.2651L1066.74 126.056L994.352 84.2632L1066.74 42.4722L1139.12 84.2651ZM993.822 83.958L921.444 42.1699L978.054 9.48486V9.47705L993.82 0.376953L1066.21 42.1689L993.822 83.958ZM920.373 42.1699L863.773 74.8481V74.856L847.997 83.9648L775.611 42.1729L847.995 0.382812L920.373 42.1699ZM847.473 84.27L775.089 126.061L702.703 84.269L775.087 42.478L847.473 84.27ZM702.173 83.9639L629.787 42.1719L702.171 0.382812L774.557 42.1738L702.173 83.9639ZM701.645 84.269L629.261 126.061L556.875 84.269L629.259 42.478L701.645 84.269ZM556.345 83.9629L483.959 42.1709L556.343 0.381836L628.729 42.1719L556.345 83.9629ZM555.816 84.2681L483.434 126.059L411.048 84.2671L483.43 42.4761L555.816 84.2681ZM410.516 83.9619L338.131 42.1699L410.513 0.379883L482.899 42.1709L410.516 83.9619ZM409.988 84.2622L337.616 126.054L265.23 84.2622L337.614 42.4712L409.988 84.2622ZM264.688 83.9561L192.316 42.165L264.7 0.375L337.086 42.166L264.688 83.9561ZM264.16 84.2559L191.776 126.047L119.39 84.2549L191.774 42.4629L264.16 84.2559ZM118.86 83.9502L46.474 42.1582L118.858 0.366211L191.244 42.1592L118.86 83.9502ZM191.246 126.35L118.881 168.145L46.495 126.353L118.88 84.563L191.246 126.35ZM191.246 210.543L118.862 252.332L46.477 210.541L118.859 168.751L191.246 210.543ZM191.246 294.735L118.862 336.526L46.476 294.734L118.86 252.942L191.246 294.735ZM191.246 378.927L118.862 420.719L46.476 378.927L118.86 337.135L191.246 378.927ZM191.246 463.119L118.862 504.911L46.477 463.119L118.861 421.329L191.246 463.119ZM118.862 505.519L191.248 547.311L126.47 584.711H126.428L118.845 589.089L111.262 584.711L46.482 547.311L118.862 505.519ZM45.404 631.49L-26.977 673.28L-99.342 631.5L-26.961 589.711L45.404 631.49ZM111.233 678.29H111.277L118.868 673.907L126.458 678.29L191.229 715.69L118.845 757.481L46.459 715.689L111.233 678.29ZM191.233 799.879L118.849 841.669L46.463 799.877L118.847 758.087L191.233 799.879ZM191.233 884.071L118.848 925.862L46.462 884.07L118.847 842.279L191.233 884.071ZM191.233 968.264L118.849 1010.05L46.464 968.262L118.846 926.471L191.233 968.264ZM191.233 1052.46L118.849 1094.25L46.463 1052.46L118.847 1010.66L191.233 1052.46ZM191.233 1136.65L118.888 1178.44L46.502 1136.65L118.886 1094.86L191.233 1136.65ZM191.233 1220.84L118.849 1262.63L46.464 1220.84L118.848 1179.05L191.233 1220.84ZM119.416 1178.75L191.8 1136.95L264.186 1178.75L191.8 1220.54L119.416 1178.75ZM264.716 1179.05L337.102 1220.84L264.716 1262.64L192.329 1220.85L264.716 1179.05ZM265.244 1178.75L337.628 1136.96L410.014 1178.75L337.626 1220.54L265.244 1178.75ZM410.544 1179.06L482.93 1220.85L410.546 1262.64L338.154 1220.85L410.544 1179.06ZM411.072 1178.76L483.456 1136.97L555.842 1178.76L483.453 1220.54L411.072 1178.76ZM556.372 1179.06L628.758 1220.85L556.374 1262.65L483.98 1220.85L556.372 1179.06ZM556.9 1178.76L629.284 1136.97L701.67 1178.76L629.278 1220.54L556.9 1178.76ZM702.2 1179.06L774.586 1220.86L702.192 1262.65L629.806 1220.85L702.2 1179.06ZM702.728 1178.77L775.113 1136.97L847.499 1178.77L775.103 1220.54L702.728 1178.77ZM848.028 1179.07L920.407 1220.86L863.796 1253.54V1253.55L848.016 1262.65L775.631 1220.85L848.028 1179.07ZM921.477 1220.86L978.077 1188.18V1188.17L993.854 1179.06L1066.23 1220.85L993.842 1262.64L921.477 1220.86ZM994.377 1178.76L1066.76 1136.97L1139.15 1178.76L1066.76 1220.55L994.377 1178.76ZM1139.68 1179.06L1212.06 1220.86L1139.68 1262.65L1067.28 1220.85L1139.68 1179.06ZM1140.2 1178.77L1212.59 1136.97L1284.98 1178.77L1212.59 1220.56L1140.2 1178.77ZM1285.51 1179.07L1357.89 1220.86L1285.51 1262.65L1213.12 1220.86L1285.51 1179.07ZM1286.03 1178.77L1358.42 1136.98L1430.8 1178.77L1358.42 1220.56L1286.03 1178.77ZM1431.33 1179.08L1503.72 1220.87L1431.32 1262.64L1358.93 1220.85L1431.33 1179.08ZM1431.86 1178.78L1504.24 1136.99L1576.63 1178.78L1504.25 1220.57L1431.86 1178.78ZM1577.16 1179.08L1649.55 1220.88L1577.16 1262.67L1504.78 1220.87L1577.16 1179.08ZM1577.69 1178.78L1650.07 1136.99L1722.46 1178.78L1650.06 1220.54L1577.69 1178.78ZM1722.99 1179.08L1795.38 1220.88L1722.97 1262.65L1650.58 1220.85L1722.99 1179.08ZM1722.99 1178.48L1650.6 1136.68L1722.99 1094.89L1795.38 1136.68L1722.99 1178.48ZM1650.6 1052.49L1722.99 1010.7L1795.37 1052.49L1722.99 1094.28L1650.6 1052.49ZM1722.99 1010.09L1650.6 968.299L1722.98 926.509L1795.37 968.3L1722.99 1010.09ZM1650.6 884.107L1722.98 842.316L1795.37 884.108L1722.98 925.899L1650.6 884.107ZM1650.6 799.915L1722.98 758.124L1795.37 799.916L1722.99 841.706L1650.6 799.915ZM1650.6 715.722L1715.38 678.322H1715.42L1723 673.944L1730.59 678.322L1795.36 715.722L1722.98 757.513L1650.6 715.722ZM1796.44 631.545L1868.82 589.754L1941.19 631.533L1868.81 673.324L1796.44 631.545ZM1730.61 584.745H1730.57L1722.98 589.128L1715.39 584.745L1650.62 547.345L1723 505.554L1795.39 547.346L1730.61 584.745ZM1650.61 463.157L1723 421.367L1795.39 463.159L1723 504.949L1650.61 463.157ZM1723 420.757L1650.61 378.965L1723 337.175L1795.38 378.967L1723 420.757ZM1650.58 294.745L1722.96 252.954L1795.35 294.746L1722.97 336.537L1650.58 294.745ZM1722.96 252.345L1650.58 210.555L1722.96 168.763L1795.35 210.555L1722.96 252.345ZM1650.58 126.363L1722.96 84.5708L1795.35 126.363L1722.96 168.153L1650.58 126.363ZM1650.58 42.1689L1722.96 0.379883L1795.35 42.1709L1722.96 83.9619L1650.58 42.1689ZM1650.58 -42.0229L1722.96 -83.813L1795.35 -42.021L1722.96 -0.22998L1650.58 -42.0229ZM1722.43 0.0771484L1650.05 41.8672L1577.67 0.0761719L1650.05 -41.7158L1722.43 0.0771484ZM1577.13 -0.229004L1504.75 -42.021L1577.13 -83.812L1649.52 -42.02L1577.13 -0.229004ZM1576.6 0.0708008L1504.22 41.8608L1431.84 0.0698242L1504.22 -41.7222L1576.6 0.0708008ZM1431.31 -0.234863L1358.92 -42.0278L1431.3 -83.8188L1503.69 -42.0269L1431.31 -0.234863ZM1430.78 0.0649414L1358.39 41.855L1286.01 0.0639648L1358.39 -41.728L1430.78 0.0649414ZM1285.48 -0.241211L1213.09 -42.0332L1285.48 -83.8242L1357.86 -42.0317L1285.48 -0.241211ZM1284.95 0.0639648L1212.57 41.854L1140.18 0.0629883L1212.56 -41.729L1284.95 0.0639648ZM1139.65 -0.242188L1067.26 -42.0342L1139.65 -83.8262L1212.03 -42.0342L1139.65 -0.242188ZM1139.12 0.0581055L1066.74 41.8481L994.351 0.0561523L1066.73 -41.7349L1139.12 0.0581055ZM993.821 -0.248047L921.442 -42.0361L978.055 -74.7222V-74.73L993.819 -83.8301L1066.2 -42.0381L993.821 -0.248047ZM920.372 -42.0361L863.772 -9.35889V-9.35107L847.994 -0.241211L775.616 -42.0229L848 -83.8149L920.372 -42.0361ZM847.467 0.0639648L775.083 41.854L702.697 0.0620117L775.081 -41.729L847.467 0.0639648ZM702.167 -0.242188L629.781 -42.0342L702.165 -83.8242L774.551 -42.0317L702.167 -0.242188ZM701.639 0.0581055L629.255 41.8481L556.869 0.0571289L629.253 -41.7349L701.639 0.0581055ZM556.339 -0.248047L483.953 -42.04L556.337 -83.8311L628.723 -42.0391L556.339 -0.248047ZM555.811 0.0522461L483.427 41.8418L411.041 0.0507812L483.425 -41.7412L555.811 0.0522461ZM410.511 -0.253906L338.125 -42.0469L410.509 -83.8379L482.916 -42.0249L410.511 -0.253906ZM409.982 0.0458984L337.598 41.8359L265.212 0.0449219L337.596 -41.7471L409.982 0.0458984ZM264.682 -0.259766L192.316 -42.0278L264.7 -83.8188L337.086 -42.0269L264.682 -0.259766ZM264.154 0.0449219L191.77 41.835L119.384 0.0439453L191.768 -41.748L264.154 0.0449219ZM118.854 -0.260742L46.468 -42.0532L118.852 -83.8452L191.238 -42.0532L118.854 -0.260742ZM118.326 0.0390625L45.941 41.8291L-26.444 0.0371094L45.94 -41.7539L118.326 0.0390625ZM118.326 84.231L45.941 126.022L-26.445 84.229L45.939 42.438L118.326 84.231ZM118.326 168.422L45.942 210.214L-26.444 168.422L45.94 126.631L118.326 168.422ZM118.326 252.615L45.942 294.405L-26.414 252.645L45.97 210.855L118.326 252.615ZM118.326 336.806L45.942 378.598L-26.444 336.806L45.94 295.016L118.326 336.806ZM118.326 421L45.942 462.791L-26.444 420.998L45.94 379.207L118.326 421ZM118.326 505.192L45.942 546.982L-26.444 505.19L45.941 463.399L118.326 505.192ZM45.942 547.592L118.307 589.373L45.926 631.161L-26.439 589.382L45.942 547.592ZM-26.437 673.574L45.944 631.785L118.309 673.565L45.928 715.354L-26.437 673.574ZM45.928 715.963L118.314 757.755L45.929 799.547L-26.456 757.755L45.928 715.963ZM118.316 841.948L45.931 883.74L-26.455 841.947L45.929 800.155L118.316 841.948ZM118.316 926.141L45.932 967.931L-26.454 926.139L45.93 884.349L118.316 926.141ZM118.316 1010.33L45.932 1052.12L-26.454 1010.33L45.93 968.541L118.316 1010.33ZM118.316 1094.53L45.932 1136.32L-26.454 1094.53L45.93 1052.73L118.316 1094.53ZM118.316 1178.72L45.932 1220.51L-26.454 1178.72L45.93 1136.92L118.316 1178.72ZM118.316 1262.91L45.932 1304.7L-26.454 1262.91L45.931 1221.12L118.316 1262.91ZM118.844 1263.21L191.23 1305L118.846 1346.79L46.46 1305L118.844 1263.21ZM119.373 1262.91L191.757 1221.12L264.186 1262.94L191.802 1304.74L119.373 1262.91ZM264.673 1263.22L337.059 1305.01L264.716 1346.83L192.33 1305.04L264.673 1263.22ZM265.201 1262.91L337.585 1221.12L410.016 1262.94L337.632 1304.74L265.201 1262.91ZM410.501 1263.22L482.886 1305.01L410.502 1346.8L338.116 1305.01L410.501 1263.22ZM411.029 1262.91L483.413 1221.12L555.798 1262.91L483.414 1304.71L411.029 1262.91ZM556.329 1263.22L628.715 1305.01L556.331 1346.8L483.944 1305.01L556.329 1263.22ZM556.857 1262.92L629.241 1221.13L701.627 1262.92L629.243 1304.71L556.857 1262.92ZM702.157 1263.23L774.543 1305.02L702.159 1346.81L629.808 1305.04L702.157 1263.23ZM702.685 1262.92L775.069 1221.13L847.455 1262.92L775.071 1304.71L702.685 1262.92ZM847.985 1263.23L920.364 1305.01L863.751 1337.7V1337.71L847.987 1346.81L775.633 1305.04L847.985 1263.23ZM921.435 1305.01L978.035 1272.34V1272.33L993.814 1263.22L1066.2 1305.01L993.815 1346.8L921.435 1305.01ZM994.335 1262.91L1066.72 1221.12L1139.1 1262.92L1066.72 1304.71L994.335 1262.91ZM1139.64 1263.22L1212.02 1305.01L1139.64 1346.8L1067.25 1305.01L1139.64 1263.22ZM1140.16 1262.92L1212.55 1221.13L1284.93 1262.92L1212.55 1304.71L1140.16 1262.92ZM1285.46 1263.23L1357.85 1305.02L1285.47 1346.81L1213.08 1305.02L1285.46 1263.23ZM1285.99 1262.92L1358.38 1221.13L1430.76 1262.92L1358.38 1304.71L1285.99 1262.92ZM1431.29 1263.23L1503.68 1305.02L1431.32 1346.83L1358.93 1305.04L1431.29 1263.23ZM1431.82 1262.92L1504.2 1221.13L1576.62 1262.94L1504.23 1304.74L1431.82 1262.92ZM1577.12 1263.23L1649.51 1305.02L1577.12 1346.81L1504.73 1305.02L1577.12 1263.23ZM1577.65 1262.93L1650.03 1221.14L1722.42 1262.93L1650.03 1304.72L1577.65 1262.93ZM1722.95 1263.23L1795.33 1305.03L1722.95 1346.82L1650.59 1305.04L1722.95 1263.23ZM1723.48 1262.93L1795.86 1221.14L1868.24 1262.93L1795.86 1304.72L1723.48 1262.93ZM1723.48 1178.74L1795.86 1136.95L1868.25 1178.74L1795.86 1220.53L1723.48 1178.74ZM1723.48 1094.55L1795.86 1052.75L1868.25 1094.55L1795.86 1136.34L1723.48 1094.55ZM1723.48 1010.35L1795.86 968.562L1868.25 1010.35L1795.86 1052.15L1723.48 1010.35ZM1723.48 926.161L1795.86 884.371L1868.25 926.163L1795.86 967.952L1723.48 926.161ZM1723.48 841.969L1795.86 800.179L1868.24 841.97L1795.86 883.761L1723.48 841.969ZM1723.48 757.777L1795.86 715.985L1868.25 757.778L1795.86 799.569L1723.48 757.777ZM1723.49 673.597L1795.88 631.808L1868.24 673.587L1795.86 715.377L1723.49 673.597ZM1868.24 589.397L1795.86 631.186L1723.49 589.407L1795.88 547.619L1868.24 589.397ZM1723.49 505.215L1795.87 463.424L1868.26 505.216L1795.87 547.008L1723.49 505.215ZM1723.49 421.023L1795.87 379.232L1868.26 421.024L1795.88 462.816L1723.49 421.023ZM1723.49 336.831L1795.87 295.04L1868.26 336.831L1795.88 378.623L1723.49 336.831ZM1723.49 252.638L1795.87 210.848L1868.26 252.64L1795.88 294.431L1723.49 252.638ZM1723.49 168.446L1795.87 126.656L1868.26 168.447L1795.88 210.238L1723.49 168.446ZM1723.49 84.2539L1795.87 42.4629L1868.26 84.2549L1795.88 126.046L1723.49 84.2539ZM1723.49 0.0620117L1795.87 -41.729L1868.26 0.0629883L1795.88 41.853L1723.49 0.0620117ZM1722.96 -168.018L1795.34 -126.226L1722.96 -84.4351L1650.57 -126.228L1722.96 -168.018ZM1722.43 -84.1299L1650.05 -42.3398L1577.66 -84.1309L1650.05 -125.923L1722.43 -84.1299ZM1577.13 -168.02L1649.52 -126.228L1577.13 -84.436L1504.75 -126.228L1577.13 -168.02ZM1576.6 -84.1309L1504.22 -42.3408L1431.84 -84.1328L1504.22 -125.923L1576.6 -84.1309ZM1431.31 -168.021L1503.69 -126.229L1431.31 -84.437L1358.92 -126.229L1431.31 -168.021ZM1430.78 -84.1328L1358.4 -42.3428L1286.01 -84.1348L1358.39 -125.926L1430.78 -84.1328ZM1285.48 -168.022L1357.87 -126.23L1285.48 -84.438L1213.1 -126.23L1285.48 -168.022ZM1212.57 -125.922L1284.95 -84.1299L1212.57 -42.3398L1140.19 -84.1318L1212.57 -125.922ZM1139.66 -168.022L1212.04 -126.23L1139.66 -84.4399L1067.27 -126.231L1139.66 -168.022ZM1139.13 -84.1348L1066.74 -42.3428L994.358 -84.1357L1066.74 -125.926L1139.13 -84.1348ZM993.828 -168.024L1066.21 -126.232L993.83 -84.4409L921.451 -126.23L978.066 -158.916V-158.924L993.828 -168.024ZM848.003 -168.017L920.382 -126.229L863.782 -93.5532V-93.5439L848.001 -84.4331L775.616 -126.215L848.003 -168.017ZM847.478 -84.1289L775.094 -42.3379L702.708 -84.1299L775.092 -125.921L847.478 -84.1289ZM702.178 -168.018L774.564 -126.226L702.18 -84.4351L629.794 -126.228L702.178 -168.018ZM701.651 -84.1299L629.267 -42.3398L556.881 -84.1309L629.265 -125.923L701.651 -84.1299ZM556.351 -168.02L628.737 -126.228L556.353 -84.436L483.967 -126.228L556.351 -168.02ZM555.826 -84.1309L483.442 -42.3408L411.056 -84.1328L483.44 -125.923L555.826 -84.1309ZM410.526 -168.021L482.912 -126.229L410.528 -84.437L338.142 -126.229L410.526 -168.021ZM409.999 -84.1328L337.615 -42.3428L265.229 -84.1348L337.613 -125.926L409.999 -84.1328ZM264.699 -168.022L337.084 -126.23L264.7 -84.438L192.316 -126.22L264.699 -168.022ZM191.786 -125.922L264.172 -84.1299L191.788 -42.3398L119.402 -84.1318L191.786 -125.922ZM118.872 -168.022L191.258 -126.23L118.874 -84.4399L46.488 -126.231L118.872 -168.022ZM118.347 -84.1348L45.963 -42.3428L-26.423 -84.1357L45.961 -125.926L118.347 -84.1348ZM-99.336 -126.235L-26.952 -168.027L45.434 -126.235L-26.95 -84.4438L-99.336 -126.235ZM-99.336 -42.043L-26.952 -83.835L45.433 -42.043L-26.951 -0.251953L-99.336 -42.043ZM-99.336 42.1489L-26.952 0.35791L45.434 42.1499L-26.95 83.9409L-99.336 42.1489ZM-99.336 126.341L-26.952 84.5508L45.434 126.343L-26.944 168.145L-99.336 126.341ZM-99.336 210.534L-26.952 168.743L45.434 210.535L-26.95 252.326L-99.336 210.534ZM-99.336 294.727L-26.952 252.935L45.434 294.727L-26.95 336.518L-99.336 294.727ZM-99.336 378.919L-26.951 337.127L45.435 378.919L-26.95 420.71L-99.336 378.919ZM-99.336 463.111L-26.952 421.321L45.434 463.113L-26.95 504.904L-99.336 463.111ZM-26.95 505.511L45.436 547.303L-19.344 584.703H-19.386L-26.967 589.08L-34.548 584.703L-99.33 547.303L-26.95 505.511ZM-99.35 715.674L-34.583 678.28H-34.54L-26.948 673.896L-19.354 678.28L45.415 715.674L-26.969 757.466L-99.35 715.674ZM-99.35 799.866L-26.966 758.075L45.42 799.866L-26.964 841.658L-99.35 799.866ZM-99.35 884.058L-26.966 842.267L45.42 884.059L-26.964 925.851L-99.35 884.058ZM-99.35 968.25L-26.966 926.459L45.42 968.251L-26.964 1010.04L-99.35 968.25ZM-99.35 1052.44L-26.966 1010.65L45.42 1052.44L-26.964 1094.23L-99.35 1052.44ZM-99.35 1136.63L-26.965 1094.84L45.421 1136.64L-26.964 1178.43L-99.35 1136.63ZM-99.35 1220.83L-26.966 1179.04L45.42 1220.83L-26.964 1262.62L-99.35 1220.83ZM-99.35 1305.02L-26.966 1263.23L45.42 1305.02L-26.964 1346.81L-99.35 1305.02ZM-26.962 1431L-99.348 1389.21L-26.964 1347.42L45.422 1389.21L-26.962 1431ZM45.949 1388.9L-26.437 1347.11L45.947 1305.32L118.333 1347.11L45.949 1388.9ZM118.864 1431L46.477 1389.21L118.861 1347.42L191.247 1389.21L118.864 1431ZM119.389 1347.12L191.804 1305.35L264.19 1347.14L191.806 1388.92L119.389 1347.12ZM264.689 1431L192.304 1389.21L264.688 1347.42L337.073 1389.21L264.689 1431ZM337.6 1388.9L265.215 1347.11L337.599 1305.32L409.985 1347.11L337.6 1388.9ZM410.515 1431L338.129 1389.21L410.513 1347.42L482.899 1389.21L410.515 1431ZM411.04 1347.12L483.424 1305.33L555.81 1347.12L483.426 1388.91L411.04 1347.12ZM556.34 1431L483.954 1389.21L556.339 1347.42L628.725 1389.21L556.34 1431ZM556.867 1347.12L629.251 1305.33L701.637 1347.12L629.253 1388.91L556.867 1347.12ZM702.167 1431.01L629.782 1389.21L702.166 1347.42L774.551 1389.22L702.167 1431.01ZM775.078 1388.91L702.693 1347.12L775.077 1305.33L847.463 1347.12L775.078 1388.91ZM847.993 1431.01L775.607 1389.21L848.016 1347.44L920.394 1389.23L863.78 1421.92V1421.93L847.993 1431.01ZM993.818 1431L921.44 1389.21L978.035 1356.54V1356.53L993.817 1347.42L1066.2 1389.21L993.818 1431ZM1066.73 1388.9L994.344 1347.11L1066.73 1305.32L1139.11 1347.11L1066.73 1388.9ZM1139.64 1431L1067.26 1389.21L1139.64 1347.42L1212.03 1389.21L1139.64 1431ZM1140.17 1347.11L1212.55 1305.32L1284.94 1347.11L1212.56 1388.9L1140.17 1347.11ZM1285.47 1431L1213.08 1389.21L1285.47 1347.42L1357.85 1389.21L1285.47 1431ZM1358.38 1388.9L1285.99 1347.11L1358.38 1305.32L1430.76 1347.11L1358.38 1388.9ZM1431.29 1431L1358.91 1389.21L1431.32 1347.44L1503.7 1389.23L1431.29 1431ZM1431.82 1347.11L1504.2 1305.32L1576.59 1347.11L1504.21 1388.91L1431.82 1347.11ZM1577.12 1431L1504.73 1389.21L1577.12 1347.42L1649.5 1389.21L1577.12 1431ZM1577.64 1347.11L1650.03 1305.33L1722.41 1347.12L1650.03 1388.91L1577.64 1347.11ZM1722.94 1431L1650.56 1389.21L1722.94 1347.42L1795.33 1389.21L1722.94 1431ZM1795.85 1388.9L1723.47 1347.11L1795.85 1305.32L1868.24 1347.11L1795.85 1388.9ZM1941.16 1389.21L1868.77 1431L1796.39 1389.21L1868.77 1347.42L1941.16 1389.21ZM1941.16 1305.02L1868.77 1346.81L1796.42 1305.04L1868.8 1263.25L1941.16 1305.02ZM1941.16 1220.83L1868.8 1262.65L1796.41 1220.85L1868.79 1179.06L1941.16 1220.83ZM1941.16 1136.63L1868.77 1178.42L1796.39 1136.63L1868.77 1094.84L1941.16 1136.63ZM1941.16 1052.44L1868.77 1094.23L1796.39 1052.44L1868.77 1010.65L1941.16 1052.44ZM1941.16 968.249L1868.77 1010.04L1796.39 968.249L1868.77 926.459L1941.16 968.249ZM1941.16 884.057L1868.77 925.848L1796.39 884.056L1868.77 842.265L1941.16 884.057ZM1941.16 799.864L1868.77 841.655L1796.39 799.863L1868.77 758.072L1941.16 799.864ZM1868.77 757.464L1796.38 715.672L1861.16 678.272H1861.21L1868.79 673.895L1876.37 678.272L1941.15 715.672L1868.77 757.464ZM1941.17 547.302L1876.4 584.696H1876.36L1868.77 589.081L1861.17 584.696L1796.42 547.325L1868.8 505.534L1941.17 547.302ZM1941.17 463.11L1868.79 504.901L1796.4 463.11L1868.78 421.318L1941.17 463.11ZM1941.17 378.918L1868.79 420.709L1796.4 378.917L1868.78 337.125L1941.17 378.918ZM1941.17 294.726L1868.79 336.517L1796.41 294.745L1868.79 252.954L1941.17 294.726ZM1941.17 210.534L1868.79 252.325L1796.4 210.533L1868.78 168.741L1941.17 210.534ZM1941.17 126.342L1868.79 168.131L1796.4 126.34L1868.78 84.5479L1941.17 126.342ZM1941.17 42.1479L1868.79 83.939L1796.4 42.147L1868.78 0.356934L1941.17 42.1479ZM1941.17 -42.0439L1868.79 -0.25293L1796.4 -42.0449L1868.78 -83.8369L1941.17 -42.0439ZM1868.78 -84.4438L1796.4 -126.236L1868.78 -168.028L1941.17 -126.236L1868.78 -84.4438Z" fill="url(#paint0_linear_208_360)"/>
</g>
<defs>
<linearGradient id="paint0_linear_208_360" x1="255" y1="58" x2="1057.5" y2="658" gradientUnits="userSpaceOnUse">
<stop stop-color="#1C2433"/>
<stop offset="1" stop-color="#1C2433" stop-opacity="0"/>
</linearGradient>
</defs>
</svg>
