<svg width="1920" height="1063" viewBox="0 0 1920 1063" fill="none" xmlns="http://www.w3.org/2000/svg">
<mask id="mask0_213_366" style="mask-type:alpha" maskUnits="userSpaceOnUse" x="0" y="0" width="1920" height="1063">
<rect width="1920" height="1063" fill="#C4C4C4"/>
</mask>
<g mask="url(#mask0_213_366)">
<path d="M2094.58 889.48L1984.02 889.5V780.04H2094.58V668.36H1984.02V558.92H2094.58V447.25H1984.02V337.81H2094.58V226.13H1984V116.68H2094.56V5H766.36V5.01H214.35V5H-118.53V116.67H-7.88V226.1H-118.44V337.77H-7.87V447.23H-118.41V558.9H-7.85V668.34H-118.41V780.01H-7.86V889.47H-118.43V1001.14H-7.85V1110.57L-118.39 1110.59V1221.13H-120V1332.8H-8.33V1222.27H-7.86V1332.8H103V1332.81L214.68 1332.82V1332.81L324.92 1332.82V1332.81L435.47 1332.82V1332.81L546.33 1332.82V1332.81L656.58 1332.82V1332.8H766.41V1332.81L878.09 1332.82V1332.81L988.59 1332.82V1332.81L1099.07 1332.82V1332.81L1209.71 1332.82V1332.8H1319.51V1332.81L1431.19 1332.82V1332.81L1541.44 1332.82V1332.8H2094.25V1222.26H2094.55L2094.58 1110.55L2094.55 1110.58H1984L1984.03 1001.15H2094.6V889.51L2094.58 889.48ZM2092.98 6.58L2093 6.59V115.11H1984.48L1984.47 6.59L2092.98 6.58ZM1984.48 999.58V891.06H2093V999.58H1984.48ZM2092.98 1220.71H1984.46V1112.19H2092.98L2093 1112.17L2092.98 1220.71ZM1431.37 1001.62H1539.88V1110.14H1431.37V1001.62ZM878.5 1222.75H987.01L987.03 1222.73L987.02 1331.27H878.49L878.5 1222.75ZM878.12 1221.17V1221.14L878.09 1221.17H878.03L878.06 1111.71H987.49V1221.17H878.12ZM214.84 1001.62H323.36V1110.14H214.84V1001.62ZM-116.83 1220.69V1112.18H-8.31V1220.7L-116.83 1220.69ZM-8.32 778.46H-116.84V669.94H-8.32V778.46ZM-116.83 557.34V448.83H-8.31V557.35L-116.83 557.34ZM1763.36 1112.18H1871.88V1220.7L1763.37 1220.69L1763.36 1112.18ZM1760.99 1112.17V1220.69H1652.47L1652.48 1112.18L1760.99 1112.17ZM1650.44 1112.17V1220.69H1541.92L1541.93 1112.18L1650.44 1112.17ZM1429.31 1220.71H1320.79V1112.19L1429.31 1112.2L1429.32 1112.18L1429.31 1220.71ZM1318.75 1001.64L1318.76 1001.63L1318.75 1110.15H1210.23V1001.64H1318.75ZM989.07 1112.18L1097.58 1112.17V1220.69H989.06L989.07 1112.18ZM546.84 1220.69L546.83 1112.18H655.35V1220.7L546.84 1220.69ZM544.77 1112.17V1220.69H436.25V1112.18L544.77 1112.17ZM325.4 1112.18H433.91V1220.7H325.4V1112.18ZM324.94 1110.6V1001.16H434.38V1110.6H324.94ZM325.47 117.14H433.99L434 117.15V225.67H325.48L325.47 117.14ZM436.28 117.14H544.8L544.81 117.15V225.67H436.29L436.28 117.14ZM546.67 117.14H655.19L655.2 117.15V225.67H546.68L546.67 117.14ZM989.08 117.14H1097.59L1097.61 117.15V225.67H989.09L989.08 117.14ZM1099.64 117.14H1208.15L1208.17 117.15V225.67H1099.65L1099.64 117.14ZM1541.92 117.14H1650.43L1650.45 117.15V225.67H1541.93L1541.92 117.14ZM1652.48 117.14H1760.99L1761.01 117.15V225.67H1652.49L1652.48 117.14ZM1982.42 117.13L1982.44 117.14V225.66H1873.92L1873.91 117.13H1982.42ZM1982.44 338.27V446.78H1873.92V338.27H1982.44ZM1320.81 999.58V891.06H1429.33V999.58H1320.81ZM1208.21 1112.18V1220.7L1099.69 1220.69V1112.18H1208.21ZM878.51 1001.62H987.03V1110.14H878.51V1001.62ZM102.22 117.14L102.23 117.15V225.67H-6.29L-6.3 117.14H102.22ZM104.28 336.23V227.71H212.8V336.23H104.28ZM213.26 337.8V447.24H103.82V337.8H213.26ZM765.9 117.13L765.91 117.14V225.66H657.39L657.38 117.13H765.9ZM878.52 225.67V117.16H987.04V225.67H878.52ZM1318.75 117.14L1318.77 117.15V225.67H1210.25L1210.24 117.14H1318.75ZM1429.33 227.71V336.23H1320.81V227.71H1429.33ZM1539.88 117.15V225.67H1431.37V117.15H1539.88ZM1871.86 227.7L1871.88 227.71V336.22H1763.36L1763.35 227.69L1871.86 227.7ZM325.72 999.58V891.07H433.92V999.58H325.72ZM104.28 999.58V891.06H212.8V999.58H104.28ZM-6.28 338.27H102.23V446.78H-6.28V338.27ZM436.27 227.71H544.79V336.23L436.27 336.22V227.71ZM1652.8 227.71H1761.32V336.23L1652.81 336.22L1652.8 227.71ZM1873.93 667.9L1873.92 559.39H1982.12V667.9H1873.93ZM1873.92 889.02V780.51L1982.12 780.5V889.02H1873.92ZM1761 1110.14H1652.8V1001.62H1761V1110.14ZM657.38 1001.64H765.89L765.91 1001.62L765.9 1110.15H657.38V1001.64ZM102.24 667.9L-6.27 667.89V559.38H102.25L102.24 667.9ZM767.95 227.71H876.47V336.23H767.95V227.71ZM1099.69 336.22L1099.68 227.69H1208.19L1208.2 227.7L1208.21 336.21H1099.69V336.22ZM1763.37 557.34L1763.36 448.83H1871.56V557.35L1763.37 557.34ZM1871.56 891.08V999.58H1763.35V891.08H1871.56ZM1649.21 999.58H1542.24L1542.23 891.07H1650.43V999.59L1649.21 999.58ZM1539.88 889.02H1431.69V780.5H1539.88V889.02ZM878.57 999.58V891.06H987.09V999.58H878.57ZM767.95 999.58V891.06H876.47V999.58H767.95ZM104.28 557.34V448.82L212.79 448.83V557.34H104.28ZM325.4 336.22V227.71H433.92V336.23L325.4 336.22ZM546.83 227.7H655.34L655.35 227.71V336.22H546.84L546.83 227.7ZM989.07 336.22L989.06 227.71H1097.58V336.23L989.07 336.22ZM1318.77 338.27V446.78H1210.25V338.27H1318.77ZM1541.93 336.22L1541.92 227.71H1650.44V336.23L1541.93 336.22ZM989.13 1110.13V1001.62L1097.65 1001.61V1110.13H989.13ZM544.47 1110.14H436.28V1001.62H544.47V1110.14ZM-6.28 780.51H102.23V889.03H-6.28V780.51ZM323.36 446.78H214.84V338.27H323.36V446.78ZM878.51 338.27H987.03V446.79H878.51V338.27ZM1429.32 448.83L1429.33 557.34H1320.81V448.82L1429.32 448.83ZM1652.79 338.27L1761 338.26V446.78H1652.81L1652.79 338.27ZM1872.02 668.36H1762.9V558.95H1872.02V668.36ZM323.36 889.02H215.16V780.51H323.36V889.02ZM1429.27 780.5V889.02H1320.75V780.5H1429.27ZM1318.76 780.5V889.02H1210.25V780.5H1318.76ZM1099.68 891.08H1208.19L1208.2 891.06L1208.19 999.59H1099.67L1099.68 891.08ZM436.26 338.27H544.47V446.79H436.28L436.26 338.27ZM765.91 446.78H657.4V338.27L765.91 338.28V446.78ZM767.95 557.34V448.82H876.46V557.33H767.95V557.34ZM1097.65 338.27V446.79H989.13L989.12 338.27L1097.63 338.26L1097.65 338.27ZM1761 667.9H1652.81V559.38H1761V667.9ZM878.51 780.5H987.03V889.02L878.52 889.01L878.51 780.5ZM1318.71 448.83V557.35H1210.2L1210.19 448.84H1318.71V448.83ZM1431.66 559.39H1539.88V667.9H1431.67L1431.66 559.39ZM1542.25 557.34L1542.24 448.83L1650.44 448.82V557.34H1542.25ZM1539.82 669.94V778.46L1431.31 778.45V669.95L1539.82 669.94ZM1099.63 889.02V780.5H1208.15V889.01H1099.63V889.02ZM655.03 999.58H546.82L546.83 891.08H655.03V999.58ZM325.71 448.83H433.91V557.35H325.71V448.83ZM1099.7 557.34L1099.69 448.83H1208.21V557.35L1099.7 557.34ZM1097.63 889.03H989.11V780.52H1097.63L1097.65 780.5L1097.63 889.03ZM436.26 780.52H544.47L544.48 889.02H436.26V780.52ZM215.13 559.39H323.35V667.9H215.14L215.13 559.39ZM655.03 557.35L546.84 557.34V448.83H655.04L655.03 557.35ZM989.07 557.34V448.83L1097.58 448.82V557.34H989.07ZM1320.75 667.9V559.38H1429.27V667.9H1320.75ZM1210.19 778.46V669.94H1318.71V778.46H1210.19ZM657.4 667.9V559.39H765.6V667.9H657.4ZM878.57 557.34L878.56 448.81H987.07L987.08 448.82V557.34H878.57ZM1210.25 667.9V559.38H1318.77V667.9H1210.25ZM1099.69 778.46V669.94H1208.21V778.46H1099.69ZM657.4 780.51L765.59 780.5V889.02H657.39L657.4 780.51ZM989.07 669.94L1097.58 669.95L1097.59 778.46H989.07V669.94ZM767.98 559.39H876.52L876.51 667.92H767.99L767.98 559.39ZM878.55 669.96L987.06 669.97L987.08 669.95L987.07 778.48H878.55V669.96ZM767.96 778.46V669.95H876.15V778.47L767.96 778.46ZM546.84 669.94H655.04V778.46H546.84V669.94ZM544.47 667.9H436.27V559.39H544.47V667.9ZM657.44 669.93L765.95 669.92L765.96 669.93V778.45L657.45 778.44L657.44 669.93ZM989.13 667.9V559.38H1097.65V667.9H989.13ZM546.38 668.36V558.95H655.5V668.36H546.38ZM325.24 668.38L325.27 558.92H434.4V668.36L325.24 668.38ZM1208.15 559.39V667.9H1099.63V559.39H1208.15ZM878.52 559.38H987.03L987.04 667.89H878.51L878.52 559.38ZM435.83 669.5H544.93V778.92H435.8L435.83 669.5ZM544.96 557.81H435.82V448.37H544.96V557.81ZM214.69 669.49H323.84V778.92H214.69V669.49ZM546.39 780.04H655.49V889.48H546.36L546.39 780.04ZM768.02 889.02V780.5H876.54V889.02H768.02ZM1321.13 778.46L1321.12 669.95H1429.32V778.47H1322.35L1321.13 778.46ZM433.91 669.96V778.46H325.7V669.96H433.91ZM212.79 778.46H104.59L104.58 669.95H212.79V778.46ZM1541.77 668.38L1541.8 558.92H1650.93V668.36L1541.77 668.38ZM1652.35 669.5H1761.45V778.92H1652.32L1652.35 669.5ZM766.37 557.81H656.93V448.36H766.37V557.81ZM1650.44 669.96V778.46H1542.23V669.96H1650.44ZM1761 780.52V889.02H1652.79V780.52H1761ZM213.26 668.35H103.82V558.92H213.26V668.35ZM103.82 780.04H213.28V889.48L103.82 889.5V780.04ZM435.81 890.61H544.93V1000.04H435.81V890.61ZM656.95 890.6H766.4V1000.05L656.92 1000.07L656.95 890.6ZM989.07 999.57V891.06H1097.59V999.58L989.07 999.57ZM1652.35 557.81L1652.34 448.37H1761.49V557.81H1652.35ZM1208.15 446.78H1099.63V338.27L1208.15 338.26V446.78ZM655.82 447.25H546.36V337.81H546.37V337.79H655.82V447.25ZM323.82 557.8H214.38V448.36H323.82V557.8ZM1763.36 669.94H1871.56V778.46H1763.36V669.94ZM1650.9 447.23L1541.46 447.24V337.81H1650.9V447.23ZM434.37 447.23L324.93 447.24V337.81H434.37V447.23ZM1541.78 780.06H1650.91V889.48H1541.78V780.06ZM1652.34 890.61H1761.46V1000.04H1652.34V890.61ZM1762.91 780.04H1872.01V889.48H1762.87L1762.91 780.04ZM1540.34 557.8H1430.91V448.36H1540.34V557.8ZM876.93 447.24H767.49V337.81H876.93V447.24ZM102.72 890.6V1000.06L-6.76 1000.08L-6.73 890.6H102.72ZM325.26 780.06H434.38V889.48H325.26V780.06ZM1431.37 338.27H1539.88V446.79H1431.37V338.27ZM102.7 557.81H-6.74V448.36H102.7V557.81ZM-6.29 1001.64H102.22L102.24 1001.62L102.23 1110.15H-6.29V1001.64ZM1208.15 1110.14H1099.63V1001.62L1208.15 1001.61V1110.14ZM1210.2 891.06H1318.7L1318.71 999.57H1210.19L1210.2 891.06ZM1429.79 447.24H1320.35V337.81H1429.79V447.24ZM987.49 336.69H878.05V227.25H987.49V336.69ZM766.38 336.69H656.92V227.23H766.38V336.69ZM323.82 336.69H214.38V227.25H323.82V336.69ZM102.7 669.48V778.92H-6.74V669.48H102.7ZM214.4 890.62H323.82V1000.04H214.4V890.62ZM546.37 1001.17H655.82V1110.59L546.37 1110.61V1001.17ZM1873.45 1000.08L1873.47 890.6H1982.92V1000.05L1873.45 1000.08ZM1873.46 778.92V669.48H1982.58V778.92H1873.46ZM1762.89 447.25L1762.88 337.81H1762.9V337.79H1872.35V447.25H1762.89ZM1430.91 227.25H1540.34V336.69H1430.91V227.25ZM1209.78 336.69L1209.77 227.23H1319.23V336.68H1209.78V336.69ZM323.36 117.15V225.67H214.85L214.84 117.16L323.36 117.15ZM102.7 227.24V336.69H-6.75V227.24H102.7ZM767.51 1001.18H876.93V1110.61H767.48L767.51 1001.18ZM1541.46 1001.16H1650.9V1110.6H1541.46V1001.16ZM1762.9 1110.62V1001.17H1872.35V1110.59L1762.9 1110.62ZM1871.89 225.67H1763.37L1763.36 117.14H1871.87L1871.89 117.15V225.67ZM104.26 1112.19L212.77 1112.2L212.79 1112.18L212.78 1220.71H104.26V1112.19ZM103.8 1110.61L103.83 1001.18H213.26V1110.61H103.8ZM767.94 1112.19L876.45 1112.2L876.47 1112.18L876.46 1220.71H767.94V1112.19ZM1430.93 890.62H1540.34V1000.04H1430.93V890.62ZM1982.42 1001.64L1982.44 1001.62L1982.42 1110.15H1873.91V1001.64H1982.42ZM2092.67 669.94V778.46H1984.48V669.95L2092.67 669.94ZM1982.9 557.81H1873.46V448.36H1982.9V557.81ZM1873.45 336.69V227.24H1982.9V336.69H1873.45ZM1429.79 226.13H1320.34L1320.33 116.67H1429.79V226.13ZM876.93 226.13H767.48V116.67H876.94L876.93 226.13ZM-8.34 891.08L-8.32 891.06L-8.33 999.59H-116.86L-116.85 891.08H-8.34ZM-6.74 1111.75L102.69 1111.73V1221.16H-6.71L-6.74 1111.75ZM656.93 1111.75L766.36 1111.73V1221.16H656.96L656.93 1111.75ZM1209.79 1111.75L1319.21 1111.73V1221.16H1209.81L1209.79 1111.75ZM1429.79 1110.61H1320.33L1320.36 1001.18H1429.79V1110.61ZM2093 448.83V557.34H1984.48V448.82L2093 448.83ZM2093 227.71V336.23H1984.48V227.71H2093ZM1982.77 6.58L1982.78 6.59V115.11H1874.27L1874.25 6.59L1982.77 6.58ZM1871.56 6.58L1871.57 6.59V115.11H1763.92V6.58H1871.56ZM1761.46 6.58V115.11H1653.84L1653.82 6.59L1761.46 6.58ZM1651.11 6.58L1651.12 6.59V115.11H1542.61L1542.59 6.59L1651.11 6.58ZM1540.21 6.58L1540.22 6.59V115.11H1431.71L1431.69 6.59L1540.21 6.58ZM1429.31 6.58L1429.32 6.59V115.11H1320.81L1320.79 6.59L1429.31 6.58ZM1318.7 6.58L1318.71 6.59V115.11H1210.19L1210.18 6.59L1318.7 6.58ZM1208.14 6.58L1208.15 6.59V115.11H1099.63L1099.62 6.59L1208.14 6.58ZM1097.65 6.58L1097.66 6.59V115.11H989.14L989.13 6.59L1097.65 6.58ZM987.09 6.58L987.1 6.59V115.11H878.59L878.57 6.58H987.09ZM876.45 6.58L876.46 6.59V115.11H767.94V6.58H876.45ZM765.9 6.58V115.1H657.39L657.38 6.58H765.9ZM655.35 6.58V115.1H546.83V6.58H655.35ZM544.47 6.58V115.1H435.95V6.58H544.47ZM433.45 6.58V115.1H324.94V6.58H433.45ZM323.36 6.58V115.1H214.85L214.84 6.58H323.36ZM212.78 6.58L212.79 6.59V115.11H104.28L104.27 6.58H212.78ZM213.26 116.68V226.13H103.81V116.68H213.26ZM102.25 6.58L102.26 6.59V115.11H-6.25L-6.27 6.58H102.25ZM-8.42 115.11H-116.93L-116.94 6.58H-8.43L-8.42 6.59V115.11ZM-8.34 227.7L-8.33 227.71V336.22H-116.84L-116.85 227.7H-8.34ZM-9.9 1331.25H-118.42V1222.73H-9.9V1331.25ZM-6.28 1331.25V1222.73H102.24V1331.25H-6.28ZM213.1 1331.27H104.58V1222.75H213.09L213.11 1222.73L213.1 1331.27ZM214.67 1221.17H214.36L214.39 1111.71H323.82V1221.17H214.71V1221.14L214.67 1221.17ZM323.34 1331.27H214.82V1222.75H323.33L323.35 1222.73L323.34 1331.27ZM433.89 1331.27H325.37V1222.75H433.88L433.9 1222.73L433.89 1331.27ZM544.75 1331.27H436.23V1222.75H544.74L544.76 1222.73L544.75 1331.27ZM655 1331.27H546.48V1222.75H655L655.02 1222.73L655 1331.27ZM657.4 1331.25V1222.73H765.92V1331.25H657.4ZM876.51 1331.27H767.99V1222.75H876.5L876.52 1222.73L876.51 1331.27ZM1097.5 1331.27H988.98V1222.75H1097.49L1097.51 1222.73L1097.5 1331.27ZM1208.13 1331.27H1099.61V1222.75H1208.12L1208.14 1222.73L1208.13 1331.27ZM1318.77 1331.25H1210.25V1222.73H1318.77V1331.25ZM1429.62 1331.27H1321.1V1222.75H1429.61L1429.63 1222.73L1429.62 1331.27ZM1431.19 1221.17H1430.89L1430.92 1111.71H1540.34V1221.17H1431.23V1221.14L1431.19 1221.17ZM1539.87 1331.27H1431.35V1222.75H1539.86L1539.88 1222.73L1539.87 1331.27ZM1650.44 1331.25H1541.92V1222.73H1650.44V1331.25ZM1760.99 1331.25H1652.47V1222.73H1760.99V1331.25ZM1871.56 1331.25H1763.04V1222.73H1871.56V1331.25ZM1982.44 1331.25H1873.92V1222.73H1982.44V1331.25ZM1873.48 1221.16L1873.46 1111.75L1982.89 1111.73V1221.16H1873.48ZM2092.67 1331.25H1984.15V1222.73H2092.67V1331.25Z" fill="url(#paint0_linear_213_366)"/>
</g>
<defs>
<linearGradient id="paint0_linear_213_366" x1="1980" y1="-31.5" x2="-37.9999" y2="1283" gradientUnits="userSpaceOnUse">
<stop stop-color="#141B29"/>
<stop offset="1" stop-color="#0D1119"/>
</linearGradient>
</defs>
</svg>
