<svg width="114" height="114" viewBox="0 0 114 114" fill="none" xmlns="http://www.w3.org/2000/svg">
<path d="M113.989 73.0212H0V75.2187H113.989V73.0212Z" fill="white"/>
<path fill-rule="evenodd" clip-rule="evenodd" d="M95.4379 57.1569C95.4379 35.866 78.2289 18.6113 56.9944 18.6113C35.771 18.6113 18.562 35.866 18.562 57.1457H0C0 25.585 25.5172 0 56.9944 0C88.4715 0 113.989 25.585 114 57.1569H95.4379ZM48.1942 6.06567C48.1942 6.06567 48.6079 6.5702 49.0104 7.07472C49.413 7.57924 49.8044 8.09498 49.8044 8.09498C49.8044 8.09498 50.4865 8.06135 51.1574 8.02771C51.3737 8.00602 51.5947 8.02163 51.7904 8.03545L51.7904 8.03546C51.8981 8.04307 51.9981 8.05013 52.0855 8.05013C52.3427 8.06135 52.5104 8.07256 52.5104 8.07256L51.6606 9.03676C51.258 9.55249 50.8666 10.0907 50.8666 10.0907L51.6494 12.5012L49.2676 11.7388L48.2836 12.5236C48.1362 12.6433 47.9843 12.7674 47.8474 12.8792L47.6239 13.0617C47.445 13.1963 47.3331 13.3196 47.3331 13.3196L47.1878 10.7746C47.1878 10.7746 47.0424 10.6849 46.8411 10.5615C46.7509 10.5139 46.6485 10.4582 46.5391 10.3986L46.5387 10.3984L46.5383 10.3982C46.3905 10.3177 46.23 10.2304 46.0696 10.1467C45.4993 9.844 44.9178 9.55249 44.9178 9.55249C44.9178 9.55249 45.544 9.2722 46.159 9.00312C46.369 8.89785 46.584 8.82788 46.7737 8.76615L46.7738 8.76613C46.8669 8.73583 46.9539 8.70752 47.0312 8.67799C47.2772 8.5995 47.4338 8.54345 47.4338 8.54345C47.4338 8.54345 47.6127 7.92681 47.8028 7.31017C48.0041 6.69353 48.1942 6.06567 48.1942 6.06567ZM31.1305 13.7566L30.0123 13.0391C30.0123 13.0391 30.0123 13.6781 30.0459 14.3732C30.0794 15.0235 30.113 15.685 30.113 15.685L28.0443 17.4452L29.3414 17.6695L30.6162 17.9161L31.5778 20.2818C31.5778 20.2818 31.8909 19.7212 32.204 19.1718C32.321 18.9763 32.4326 18.7807 32.5312 18.608L32.5313 18.6076C32.574 18.5329 32.6142 18.4625 32.6513 18.3982C32.7631 18.1852 32.8637 18.0619 32.8637 18.0619L35.4132 18.0955L33.8813 16.055C33.8813 16.055 34.0937 15.4384 34.3174 14.8217C34.5522 14.1939 34.787 13.5772 34.787 13.5772L32.2264 14.4854C32.2264 14.4854 31.6784 14.1154 31.1305 13.7566ZM15.5876 26.7734C15.5876 26.7734 16.225 26.908 16.8623 27.0537L18.1147 27.3452C18.1147 27.3452 18.6291 26.8968 19.1323 26.4483C19.3783 26.2241 19.6466 26.0111 19.8591 25.8653C20.0604 25.7196 20.2057 25.6187 20.2057 25.6187C20.2057 25.6187 20.161 26.2577 20.161 26.908C20.1722 27.5695 20.1945 28.231 20.1945 28.231L22.3191 29.61L19.9709 30.5069C19.9709 30.5069 19.8255 31.1236 19.6914 31.7402C19.6243 32.0429 19.5572 32.3456 19.5124 32.5699L19.4565 32.9623L17.7345 31.0563C17.7345 31.0563 17.5668 31.0787 17.3431 31.1124C17.1087 31.1571 16.7962 31.2131 16.4837 31.269L16.4836 31.2691L16.4832 31.2691L16.4828 31.2692L16.4821 31.2693L15.2074 31.516C15.2074 31.516 15.5205 30.9105 15.8448 30.3051C15.9901 29.9912 16.169 29.6997 16.3144 29.4979C16.4486 29.2849 16.5492 29.1391 16.5492 29.1391C16.5492 29.1391 16.3032 28.5449 16.0684 27.9507C15.8224 27.3789 15.5876 26.7734 15.5876 26.7734ZM7.53662 46.0349C7.53662 46.0349 8.17399 45.9452 8.80018 45.8555C9.11327 45.8106 9.43755 45.777 9.68355 45.7546C9.92956 45.7322 10.0973 45.7097 10.0973 45.7097L11.5398 43.4001C11.5398 43.4001 11.7522 44.0168 11.9535 44.6446L12.3784 45.8555L14.872 46.4385L13.8656 47.2233C13.5972 47.4139 13.3736 47.6269 13.2059 47.7951C13.0381 47.9521 12.9263 48.0642 12.9263 48.0642L13.34 50.5756L11.0925 49.376C11.0925 49.376 10.5222 49.6899 9.94074 49.9926C9.35928 50.3177 8.789 50.6429 8.789 50.6429L9.29219 47.9745C9.29219 47.9745 8.85609 47.4924 8.40881 47.0103C7.97272 46.5282 7.53662 46.0349 7.53662 46.0349ZM68.0421 7.63444C67.8408 6.99538 67.6395 6.36752 67.6395 6.36752C67.6395 6.36752 67.237 6.83841 66.8121 7.38778C66.4095 7.91473 66.0181 8.44168 66.0181 8.44168L63.3009 8.48652C63.3009 8.48652 63.737 8.97983 64.1619 9.48436C64.5757 9.97767 64.9894 10.4822 64.9894 10.4822L64.2178 12.9263C64.2178 12.9263 64.8105 12.6909 65.4031 12.4667C65.7051 12.3545 66.007 12.2424 66.2306 12.1527C66.4654 12.0967 66.6108 12.0518 66.6108 12.0518L68.5453 13.7111L68.6795 11.1549C68.6795 11.1549 69.2385 10.8185 69.7976 10.4934C70.3679 10.1683 70.9494 9.84313 70.9494 9.84313L68.4111 8.89014C68.4111 8.89014 68.2322 8.26229 68.0421 7.63444ZM85.9779 14.1379C85.9779 14.1379 85.9555 14.7882 85.9219 15.4385C85.8772 16.0776 85.8437 16.7166 85.8437 16.7166C85.8437 16.7166 85.9779 16.8175 86.1791 16.9857C86.3804 17.1427 86.6488 17.3557 86.8836 17.6023C87.3756 18.0732 87.8676 18.5553 87.8676 18.5553C87.8676 18.5553 87.2302 18.6338 86.5817 18.7123L86.5816 18.7123L86.5814 18.7123C86.2684 18.7572 85.9554 18.802 85.7095 18.8356C85.4747 18.8693 85.3069 18.9141 85.3069 18.9141L84.2782 21.2573C84.2782 21.2573 84.2111 21.1116 84.0993 20.9098C83.9763 20.708 83.8197 20.4501 83.6632 20.181C83.3389 19.6429 83.0035 19.1047 83.0035 19.1047L80.5099 18.9814L82.0865 16.9857C82.0865 16.9857 81.8853 16.3466 81.6952 15.7188C81.4827 15.1021 81.2255 14.5079 81.2255 14.5079C81.2255 14.5079 81.3933 14.5528 81.6281 14.6313C81.8741 14.6985 82.1984 14.8106 82.5003 14.9452C83.1265 15.203 83.7527 15.4721 83.7527 15.4721C83.7527 15.4721 84.3006 15.1358 84.8485 14.7882C85.4076 14.4631 85.9779 14.1379 85.9779 14.1379ZM99.3627 28.1076C99.6199 27.5134 99.8883 26.908 99.8883 26.908C99.8883 26.908 99.2509 27.0089 98.6247 27.121C97.9985 27.2331 97.3723 27.3564 97.3723 27.3564L95.2813 25.6074C95.2813 25.6074 95.2813 26.2689 95.2701 26.9192C95.2589 27.5695 95.2366 28.2085 95.2366 28.2085L93.0449 29.5315C93.0449 29.5315 93.6376 29.7557 94.2414 29.9687C94.8005 30.2378 95.3708 30.4957 95.3708 30.4957L95.7621 32.9959L97.5401 31.1684C97.5401 31.1684 98.1774 31.2805 98.826 31.4038C99.1503 31.4711 99.4745 31.5384 99.7205 31.5832C99.9665 31.6281 100.123 31.6729 100.123 31.6729C100.123 31.6729 100.045 31.5272 99.9218 31.3029C99.8811 31.2287 99.8367 31.1458 99.7894 31.0575C99.6939 30.8794 99.5867 30.6794 99.4745 30.4845C99.1503 29.8903 98.8148 29.2961 98.8148 29.2961C98.8148 29.2961 99.0944 28.7018 99.3627 28.1076ZM107.324 47.3466C107.324 47.3466 106.899 47.8175 106.43 48.2884C105.96 48.7481 105.49 49.219 105.49 49.219L105.837 51.921C105.837 51.921 105.278 51.5622 104.73 51.2146L103.634 50.5419L101.331 51.6407C101.331 51.6407 101.476 51.024 101.61 50.4074C101.638 50.2763 101.668 50.1453 101.697 50.02L101.697 50.0191C101.737 49.8445 101.774 49.681 101.8 49.5441L101.856 49.1517L99.9553 47.4475L102.46 46.9766C102.46 46.9766 102.706 46.3712 102.963 45.777L103.455 44.5437L104.741 46.943L106.038 47.1448C106.676 47.2345 107.324 47.3466 107.324 47.3466Z" fill="white"/>
<path d="M19.7363 69.2095C19.0766 70.084 18.059 70.8576 16.7731 70.8576C14.7044 70.8576 13.3179 69.2768 13.3179 66.6757C13.3179 63.9961 15.0063 62.3816 16.2923 62.3816C17.2651 62.3816 17.7124 63.0319 17.8018 63.1776L18.0255 62.5273H19.5574V65.8348H17.8018C17.7795 65.0724 17.4664 64.3548 16.7731 64.3548C16.0686 64.3548 15.6102 65.3975 15.6102 66.6644C15.6102 67.8192 16.1134 68.8619 17.0415 68.8619C17.8577 68.8619 18.5063 67.8304 18.5957 67.7183L19.7363 69.2095Z" fill="white"/>
<path d="M25.0364 69.8597C24.3096 70.6109 23.5269 70.8687 22.5093 70.8687C21.3016 70.8687 19.9263 69.9494 19.9263 67.7071C19.9263 65.7899 21.078 64.6687 22.554 64.6687C23.7169 64.6687 24.6115 65.375 24.8911 66.3617C25.0029 66.7653 25.1147 67.6622 24.9134 68.3349H21.8384C21.8943 68.6488 22.0285 69.2879 22.8448 69.2879C23.1802 69.2879 23.6834 69.2543 24.209 68.7273L25.0364 69.8597ZM23.3368 67.1801C23.3256 66.7316 23.2361 66.2495 22.6099 66.2495C22.0173 66.2495 21.8719 66.8886 21.8607 67.1801H23.3368Z" fill="white"/>
<path d="M25.4277 70.6671V69.1423H25.8415V66.3506H25.4277V64.837H27.5076L27.7312 65.5546C28.0667 65.0052 28.5139 64.624 29.129 64.624C30.6497 64.624 30.8957 65.9694 30.8957 67.1915V69.1423H31.3542V70.6671H28.8941V67.483C28.8941 67.0906 28.9277 66.3955 28.3462 66.3955C27.843 66.3955 27.7312 66.9785 27.7312 67.483V69.1423H28.4357V70.6671H25.4277V70.6671Z" fill="white"/>
<path d="M32.1818 64.8369V63.7606L33.9821 63.0767V64.8369H34.9102V66.3505H33.9821V68.4246C33.9821 68.817 33.915 69.3552 34.2952 69.3552C34.4182 69.3552 34.7201 69.2543 34.9102 69.1534V70.6445C34.6195 70.7791 33.9486 70.8688 33.7249 70.8688C32.2601 70.8688 32.2042 69.9158 32.1818 68.4246V66.3505H31.6562V64.8369H32.1818Z" fill="white"/>
<path d="M35.3013 70.6669V69.1422H35.7262V66.3505H35.3013V64.8369H37.1351L37.4258 65.5881C37.683 65.0275 37.929 64.5454 38.9466 64.5454V66.642C38.0632 66.642 37.5712 66.9111 37.5712 67.9313V69.131H38.0632V70.6557H35.3013V70.6669Z" fill="white"/>
<path d="M39.461 65.3192C39.8524 65.0389 40.6911 64.4895 41.5968 64.4895C42.7709 64.4895 44.2469 65.0164 44.2469 66.8888V69.1648H44.8284V70.6559H42.7373L42.5025 70.129C42.1447 70.7232 41.5297 70.8801 41.1831 70.8801C40.255 70.8801 39.2598 70.2859 39.2598 68.9293C39.2598 67.6063 40.1879 66.7879 41.2949 66.7879C41.8763 66.7879 42.2118 67.1242 42.2677 67.1915V66.7879C42.2677 66.2609 41.8652 66.1376 41.3396 66.1376C40.7581 66.1376 40.255 66.4291 39.886 66.6758L39.461 65.3192ZM42.2565 68.5369C42.223 68.4808 42.0888 68.2006 41.6751 68.2006C41.2837 68.2006 41.1048 68.4584 41.1048 68.8172C41.1048 69.1423 41.3284 69.3666 41.6192 69.3666C41.9099 69.3666 42.1559 69.1535 42.2453 68.9854V68.5369H42.2565Z" fill="white"/>
<path d="M45.2197 70.667V69.1422H45.6446V63.4242H45.2309V61.9219H47.5008V69.1422H48.0823V70.667H45.2197V70.667Z" fill="white"/>
<path d="M57.218 69.2095C56.5583 70.084 55.5407 70.8576 54.2548 70.8576C52.1861 70.8576 50.7996 69.2768 50.7996 66.6757C50.7996 63.9961 52.488 62.3816 53.774 62.3816C54.7468 62.3816 55.1941 63.0319 55.2835 63.1776L55.5072 62.5273H57.0391V65.8348H55.2835C55.25 65.0724 54.9369 64.3661 54.2436 64.3661C53.5391 64.3661 53.0807 65.4087 53.0807 66.6757C53.0807 67.8304 53.5839 68.8731 54.512 68.8731C55.3282 68.8731 55.9768 67.8417 56.0663 67.7295L57.218 69.2095Z" fill="white"/>
<path d="M57.4754 67.7293C57.4866 65.7785 58.806 64.7021 60.159 64.7021C61.7021 64.7246 62.8427 65.8345 62.8763 67.7854C62.8986 69.725 61.691 70.8237 60.2038 70.8237C58.806 70.8125 57.453 69.7922 57.4754 67.7293ZM60.8747 67.7741C60.8747 66.8996 60.6175 66.2269 60.159 66.2157C59.7789 66.2157 59.4881 66.8884 59.4881 67.7405C59.4881 68.6935 59.8012 69.3214 60.2149 69.3214C60.6287 69.3214 60.8747 68.6487 60.8747 67.7741Z" fill="white"/>
<path d="M63.2227 70.667V69.1422H63.6364V66.3953H63.2227V64.8593H65.0677L65.2801 65.5432C65.4367 65.319 65.884 64.6912 66.499 64.6912C67.483 64.6912 67.7961 65.2517 67.9526 65.532C68.2545 65.1284 68.713 64.6912 69.3951 64.6912C70.9829 64.6912 71.2289 66.0702 71.2289 67.4941V69.1085H71.7097V70.6782H69.2274V67.8192C69.2274 67.2586 69.3168 66.3729 68.8584 66.3729C68.4334 66.3729 68.344 66.7205 68.344 67.225V69.1085H68.9254V70.667H66.3983V67.6959C66.3983 66.7541 66.376 66.3617 65.9846 66.3617C65.6715 66.3617 65.5485 66.5859 65.5485 67.0568V69.131H66.13V70.6557H63.2227V70.667Z" fill="white"/>
<path d="M72.1011 70.667V69.1422H72.5148V66.3953H72.1011V64.8593H73.9461L74.1585 65.5432C74.3151 65.319 74.7624 64.6912 75.3774 64.6912C76.3614 64.6912 76.6745 65.2517 76.831 65.532C77.1329 65.1284 77.5914 64.6912 78.2735 64.6912C79.8613 64.6912 80.1073 66.0702 80.1073 67.4941V69.1085H80.5882V70.6782H78.1058V67.8192C78.1058 67.2586 78.1952 66.3729 77.7368 66.3729C77.3118 66.3729 77.2224 66.7205 77.2224 67.225V69.1085H77.8039V70.667H75.2767V67.6959C75.2767 66.7541 75.2544 66.3617 74.863 66.3617C74.5499 66.3617 74.4269 66.5859 74.4269 67.0568V69.131H75.0084V70.6557H72.1011V70.667Z" fill="white"/>
<path d="M81.0914 65.3192C81.4828 65.0389 82.3214 64.4895 83.2272 64.4895C84.4013 64.4895 85.8773 65.0164 85.8773 66.8888V69.1648H86.4588V70.6559H84.3677L84.1329 70.129C83.7751 70.7232 83.1601 70.8801 82.8134 70.8801C81.8853 70.8801 80.8901 70.2859 80.8901 68.9293C80.8901 67.6063 81.8182 66.7879 82.9253 66.7879C83.5067 66.7879 83.8422 67.1242 83.8981 67.1915V66.7879C83.8981 66.2609 83.4955 66.1376 82.97 66.1376C82.3885 66.1376 81.8853 66.4291 81.5163 66.6758L81.0914 65.3192ZM83.8869 68.5369C83.8534 68.4808 83.7192 68.2006 83.3054 68.2006C82.9141 68.2006 82.7352 68.4584 82.7352 68.8172C82.7352 69.1423 82.9588 69.3666 83.2495 69.3666C83.5403 69.3666 83.7863 69.1535 83.8757 68.9854V68.5369H83.8869Z" fill="white"/>
<path d="M86.8501 70.6671V69.1423H87.2638V66.3506H86.8501V64.837H88.9299L89.1536 65.5546C89.489 65.0052 89.9363 64.624 90.5513 64.624C92.0721 64.624 92.3181 65.9694 92.3181 67.1915V69.1423H92.7765V70.6671H90.3165V67.483C90.3165 67.0906 90.35 66.3955 89.7686 66.3955C89.2654 66.3955 89.1536 66.9785 89.1536 67.483V69.1423H89.858V70.6671H86.8501V70.6671Z" fill="white"/>
<path d="M96.0864 63.4354V61.9219H98.524V69.1534H98.9937V70.6669H96.7014L96.5336 70.2409C96.4106 70.3754 95.9746 70.7791 95.3036 70.7791C93.9283 70.7791 93.0337 69.3216 93.0337 67.6959C93.0337 65.8796 94.096 64.7248 95.3036 64.7248C95.9969 64.7248 96.3547 65.0275 96.5336 65.1733V63.4467H96.0864V63.4354ZM95.8404 69.1197C96.2205 69.1197 96.5784 68.548 96.5336 67.6286C96.5336 66.8326 96.1982 66.2271 95.8292 66.2271C95.4154 66.2271 95.1359 66.7989 95.1359 67.6847C95.1359 68.391 95.4043 69.1197 95.8404 69.1197Z" fill="white"/>
<path d="M45.7007 80.5895C46.3045 80.298 46.7741 80.1298 47.5345 79.2104H49.4019V85.175H50.3747V86.5765H46.1815V85.175H47.2326V81.2734L46.1815 81.7667L45.7007 80.5895Z" fill="white"/>
<path d="M51.7277 84.4571C52.0855 84.6702 52.6222 84.9953 53.2596 84.9953C54.0311 84.9729 54.5567 84.4908 54.5455 83.5602C54.2771 83.8293 53.8187 84.076 53.2596 84.0984C51.9178 84.1544 50.7996 83.179 50.7996 81.7551C50.7996 80.3425 51.8059 79.1428 53.5168 79.0868C55.2388 79.0307 56.5694 80.2752 56.6365 82.383C56.6813 83.9863 56.2452 86.5761 53.4832 86.6546C52.7788 86.677 51.627 86.3519 51.0008 85.825L51.7277 84.4571ZM54.5231 81.9906C54.5231 81.4636 54.3107 80.7461 53.6398 80.7461C53.103 80.7461 52.6781 81.1497 52.6893 81.6542C52.7005 82.0691 52.9129 82.6072 53.5391 82.596C54.02 82.5624 54.3554 82.1924 54.5231 81.9906Z" fill="white"/>
<path d="M57.889 84.4571C58.2469 84.6702 58.7836 84.9953 59.421 84.9953C60.1925 84.9729 60.7181 84.4908 60.7069 83.5602C60.4385 83.8293 59.9801 84.076 59.421 84.0984C58.0791 84.1544 56.9609 83.179 56.9609 81.7551C56.9609 80.3425 57.9673 79.1428 59.6781 79.0868C61.4002 79.0307 62.7308 80.2752 62.7979 82.383C62.8426 83.9863 62.4065 86.5761 59.6446 86.6546C58.9401 86.677 57.7884 86.3519 57.1622 85.825L57.889 84.4571ZM60.6845 81.9906C60.6845 81.4636 60.4721 80.7461 59.8012 80.7461C59.2644 80.7461 58.8395 81.1497 58.8507 81.6542C58.8619 82.0691 59.0743 82.6072 59.7005 82.596C60.1925 82.5624 60.5168 82.1924 60.6845 81.9906Z" fill="white"/>
<path d="M63.1333 82.854C63.1333 80.6229 64.3521 79.0757 66.0965 79.0757C68.154 79.0757 69.1156 80.6005 69.1156 82.9325C69.1156 85.2645 68.0533 86.6996 66.1524 86.6996C64.3857 86.6884 63.1333 85.4439 63.1333 82.854ZM66.9911 82.9213C66.9911 81.6656 66.5885 80.7574 66.0741 80.7574C65.6828 80.7462 65.202 81.5535 65.202 82.8428C65.202 84.1994 65.7163 85.0515 66.1412 85.0515C66.6221 85.0627 66.9911 84.2106 66.9911 82.9213Z" fill="white"/>
<path d="M113.989 58.7266H0V60.924H113.989V58.7266Z" fill="white"/>
<path fill-rule="evenodd" clip-rule="evenodd" d="M23.9519 76.3848C30.6387 87.6861 42.9724 95.3885 57.0951 95.3885C71.2179 95.3885 83.5516 87.6749 90.2384 76.3848H110.69C102.729 98.3372 81.7401 114 57.1063 114C32.4613 114 11.484 98.3259 3.52246 76.3848H23.9519ZM99.9891 87.0469C99.9891 87.0469 99.7208 86.4415 99.4636 85.8473C99.1952 85.253 98.9157 84.6588 98.9157 84.6588C98.9157 84.6588 99.2511 84.0646 99.5754 83.4704C99.6875 83.2755 99.7947 83.0756 99.8901 82.8975C99.9375 82.8092 99.9819 82.7263 100.023 82.6519C100.146 82.4277 100.224 82.282 100.224 82.282C100.224 82.282 100.067 82.3268 99.8214 82.3717C99.5754 82.4165 99.2511 82.4838 98.9268 82.551C98.2783 82.6744 97.6409 82.7865 97.6409 82.7865L95.863 80.959L95.4716 83.4592C95.4716 83.4592 94.9013 83.717 94.3422 83.9861C93.7384 84.1991 93.1458 84.4234 93.1458 84.4234L95.3374 85.7464C95.3374 85.7464 95.3598 86.3854 95.371 87.0357C95.3822 87.686 95.3822 88.3475 95.3822 88.3475L97.4732 86.5984C97.4732 86.5984 98.0994 86.7218 98.7256 86.8339C99.3518 86.9348 99.9891 87.0469 99.9891 87.0469ZM15.6884 87.1815C15.6884 87.1815 16.3258 87.047 16.9632 86.9012L18.2155 86.6097C18.2155 86.6097 18.7299 87.0582 19.2331 87.5066C19.4791 87.7309 19.7475 87.9551 19.9599 88.0896C20.1612 88.2354 20.3066 88.3363 20.3066 88.3363C20.3066 88.3363 20.2618 87.6972 20.2618 87.047C20.273 86.3855 20.2954 85.724 20.2954 85.724L22.4199 84.345L20.0717 83.448C20.0717 83.448 19.9264 82.8314 19.7922 82.2147C19.7251 81.912 19.658 81.6093 19.6133 81.3851L19.5574 80.9927L17.8353 82.8987C17.8353 82.8987 17.6676 82.8762 17.444 82.8426C17.2092 82.7978 16.8963 82.7417 16.5833 82.6857L16.5832 82.6857L16.5832 82.6857L16.583 82.6856L15.3082 82.439C15.3082 82.439 15.6213 83.0444 15.9456 83.6498C16.091 83.9638 16.2699 84.2553 16.4152 84.4571C16.5494 84.6701 16.6501 84.8158 16.6501 84.8158C16.6501 84.8158 16.4041 85.4101 16.1692 86.0043C15.9232 86.5761 15.6884 87.1815 15.6884 87.1815ZM30.1132 100.916L31.2314 100.198C31.7793 99.8395 32.3272 99.4695 32.3272 99.4695L34.8879 100.378C34.8879 100.378 34.653 99.761 34.4182 99.1332C34.1946 98.5165 33.9821 97.8999 33.9821 97.8999L35.514 95.8594L32.9646 95.893C32.9646 95.893 32.8639 95.7697 32.7521 95.5567C32.7151 95.4925 32.675 95.4223 32.6325 95.3478L32.6322 95.3472L32.6321 95.3471C32.5335 95.1744 32.4219 94.9787 32.3048 94.783C31.9917 94.2337 31.6786 93.6731 31.6786 93.6731L30.717 96.0388L29.4422 96.2854L28.1451 96.5096L30.2138 98.2699C30.2138 98.2699 30.1803 98.9314 30.1467 99.5816C30.1132 100.277 30.1132 100.916 30.1132 100.916ZM49.1112 106.869C48.7087 107.374 48.2949 107.878 48.2949 107.878C48.2949 107.878 48.1048 107.262 47.8924 106.645C47.7023 106.029 47.5234 105.412 47.5234 105.412C47.5234 105.412 47.3668 105.356 47.1208 105.277C47.0435 105.248 46.9565 105.22 46.8634 105.189L46.8633 105.189C46.6737 105.127 46.4586 105.057 46.2486 104.952C45.6336 104.683 45.0074 104.403 45.0074 104.403C45.0074 104.403 45.5889 104.111 46.1592 103.809C46.3196 103.725 46.4801 103.638 46.6278 103.557C46.7375 103.497 46.8402 103.442 46.9307 103.394C47.132 103.27 47.2774 103.181 47.2774 103.181L47.4339 100.636C47.4339 100.636 47.5457 100.759 47.7247 100.894L47.9484 101.076C48.0852 101.188 48.237 101.312 48.3844 101.432L49.3684 102.217L51.7502 101.454L50.9674 103.865C50.9674 103.865 51.3588 104.403 51.7725 104.907L52.6223 105.872C52.6223 105.872 52.4546 105.883 52.1974 105.894C52.1051 105.894 52.0012 105.901 51.8904 105.909L51.8904 105.909C51.6927 105.923 51.4731 105.938 51.2582 105.916C50.5872 105.883 49.9051 105.849 49.9051 105.849C49.9051 105.849 49.5138 106.365 49.1112 106.869ZM67.7404 107.587C67.7404 107.587 67.9417 106.959 68.143 106.32C68.3331 105.692 68.512 105.064 68.512 105.064L71.0503 104.111C71.0503 104.111 70.4688 103.786 69.8986 103.461C69.3395 103.136 68.7804 102.799 68.7804 102.799L68.6462 100.243L66.7117 101.902C66.7117 101.902 66.5663 101.858 66.3315 101.79C66.108 101.701 65.8063 101.589 65.5045 101.477L65.5045 101.477L65.5043 101.477L65.5041 101.476C64.9114 101.252 64.3188 101.017 64.3188 101.017L65.0903 103.461C65.0903 103.461 64.6766 103.954 64.2629 104.459C63.838 104.963 63.4019 105.457 63.4019 105.457L66.1191 105.501C66.1191 105.501 66.5104 106.028 66.913 106.555C67.3379 107.116 67.7404 107.587 67.7404 107.587ZM86.0229 98.5163C86.0564 99.1666 86.0788 99.8169 86.0788 99.8169L84.9382 99.1442C84.3903 98.7966 83.8424 98.4603 83.8424 98.4603C83.8424 98.4603 83.2162 98.7294 82.59 98.9872C82.2881 99.1218 81.9638 99.2339 81.7178 99.3012C81.483 99.3796 81.3153 99.4245 81.3153 99.4245C81.3153 99.4245 81.5724 98.8303 81.7849 98.2136C81.975 97.5858 82.1763 96.9467 82.1763 96.9467L80.5996 94.951L83.1044 94.8501C83.1044 94.8501 83.4398 94.312 83.7641 93.7738C83.9207 93.5047 84.0772 93.2469 84.2002 93.0451C84.312 92.8433 84.3791 92.6975 84.3791 92.6975L85.4078 95.0407C85.4078 95.0407 85.5756 95.0856 85.8104 95.1192C86.0563 95.1528 86.3691 95.1976 86.682 95.2425L86.6826 95.2425C87.3311 95.321 87.9685 95.3995 87.9685 95.3995C87.9685 95.3995 87.4765 95.8816 86.9845 96.3525C86.7497 96.5992 86.4813 96.8122 86.28 96.9691C86.0788 97.1373 85.9446 97.2382 85.9446 97.2382C85.9446 97.2382 85.9781 97.8773 86.0229 98.5163Z" fill="white"/>
<path d="M37.2805 41.9317V42.1111C37.2805 42.4026 36.9898 42.6381 36.632 42.6381H33.9036C33.7023 42.6381 33.5122 42.7165 33.3892 42.8511L28.8494 47.8178C28.5363 48.1654 28.8382 48.6587 29.3637 48.6587H81.5163C81.8741 48.6587 82.1649 48.4233 82.1649 48.1318V43.4677V42.6381V41.9317C82.1649 41.6402 81.8741 41.4048 81.5163 41.4048H37.9291C37.5713 41.4048 37.2805 41.6402 37.2805 41.9317Z" fill="white"/>
<path d="M80.2528 44.6447H77.4573C76.4062 44.6447 75.5564 43.7926 75.5564 42.7387V41.9988C75.5564 40.9449 76.4062 40.0928 77.4573 40.0928H80.2528C81.3039 40.0928 82.1537 40.9449 82.1537 41.9988V42.7387C82.1537 43.7814 81.3039 44.6447 80.2528 44.6447Z" fill="white"/>
<path d="M41.977 41.4048H36.4978V43.1426H41.977V41.4048Z" fill="white"/>
<path d="M33.9932 46.4724L36.0059 50.4077H80.6666C81.1474 49.7574 81.6282 49.0062 82.1091 48.2999C66.0742 47.6945 50.0393 47.0891 33.9932 46.4724Z" fill="white"/>
<path d="M39.2375 50.0039C37.4596 50.0039 36.0171 51.4502 36.0171 53.2329C36.0171 55.0155 37.4596 56.4618 39.2375 56.4618C41.0154 56.4618 42.4579 55.0155 42.4579 53.2329C42.4579 51.439 41.0154 50.0039 39.2375 50.0039ZM39.2375 54.7801C38.3877 54.7801 37.6944 54.0849 37.6944 53.2329C37.6944 52.3808 38.3877 51.6857 39.2375 51.6857C40.0873 51.6857 40.7806 52.3808 40.7806 53.2329C40.7918 54.0849 40.0985 54.7801 39.2375 54.7801Z" fill="white"/>
<path d="M45.902 50.0039C44.1241 50.0039 42.6816 51.4502 42.6816 53.2329C42.6816 55.0155 44.1241 56.4618 45.902 56.4618C47.68 56.4618 49.1224 55.0155 49.1224 53.2329C49.1113 51.439 47.68 50.0039 45.902 50.0039ZM45.902 54.7801C45.0522 54.7801 44.3589 54.0849 44.3589 53.2329C44.3589 52.3808 45.0522 51.6857 45.902 51.6857C46.7519 51.6857 47.4452 52.3808 47.4452 53.2329C47.4452 54.0849 46.7519 54.7801 45.902 54.7801Z" fill="white"/>
<path d="M52.5998 50.0039C50.8219 50.0039 49.3794 51.4502 49.3794 53.2329C49.3794 55.0155 50.8219 56.4618 52.5998 56.4618C54.3777 56.4618 55.8202 55.0155 55.8202 53.2329C55.809 51.439 54.3665 50.0039 52.5998 50.0039ZM52.5998 54.7801C51.75 54.7801 51.0567 54.0849 51.0567 53.2329C51.0567 52.3808 51.75 51.6857 52.5998 51.6857C53.4496 51.6857 54.1429 52.3808 54.1429 53.2329C54.1429 54.0849 53.4496 54.7801 52.5998 54.7801Z" fill="white"/>
<path d="M59.3649 50.0039C57.587 50.0039 56.1445 51.4502 56.1445 53.2329C56.1445 55.0155 57.587 56.4618 59.3649 56.4618C61.1429 56.4618 62.5853 55.0155 62.5853 53.2329C62.5853 51.439 61.1429 50.0039 59.3649 50.0039ZM59.3649 54.7801C58.5151 54.7801 57.8218 54.0849 57.8218 53.2329C57.8218 52.3808 58.5151 51.6857 59.3649 51.6857C60.2148 51.6857 60.908 52.3808 60.908 53.2329C60.908 54.0849 60.2259 54.7801 59.3649 54.7801Z" fill="white"/>
<path d="M66.0851 50.0039C64.3072 50.0039 62.8647 51.4502 62.8647 53.2329C62.8647 55.0155 64.3072 56.4618 66.0851 56.4618C67.8631 56.4618 69.3055 55.0155 69.3055 53.2329C69.2944 51.439 67.8519 50.0039 66.0851 50.0039ZM66.0851 54.7801C65.2353 54.7801 64.542 54.0849 64.542 53.2329C64.542 52.3808 65.2353 51.6857 66.0851 51.6857C66.935 51.6857 67.6283 52.3808 67.6283 53.2329C67.6283 54.0849 66.935 54.7801 66.0851 54.7801Z" fill="white"/>
<path d="M72.7946 50.0039C71.0167 50.0039 69.5742 51.4502 69.5742 53.2329C69.5742 55.0155 71.0167 56.4618 72.7946 56.4618C74.5725 56.4618 76.015 55.0155 76.015 53.2329C76.015 51.439 74.5725 50.0039 72.7946 50.0039ZM72.7946 54.7801C71.9448 54.7801 71.2515 54.0849 71.2515 53.2329C71.2515 52.3808 71.9448 51.6857 72.7946 51.6857C73.6444 51.6857 74.3377 52.3808 74.3377 53.2329C74.3489 54.0849 73.6556 54.7801 72.7946 54.7801Z" fill="white"/>
<path d="M79.5148 50.0039C77.7369 50.0039 76.2944 51.4502 76.2944 53.2329C76.2944 55.0155 77.7369 56.4618 79.5148 56.4618C81.2928 56.4618 82.7352 55.0155 82.7352 53.2329C82.724 51.439 81.2816 50.0039 79.5148 50.0039ZM79.5148 54.7801C78.665 54.7801 77.9717 54.0849 77.9717 53.2329C77.9717 52.3808 78.665 51.6857 79.5148 51.6857C80.3647 51.6857 81.0579 52.3808 81.0579 53.2329C81.0579 54.0849 80.3647 54.7801 79.5148 54.7801Z" fill="white"/>
<path d="M83.4731 49.3425C82.7239 49.3425 82.1089 49.9592 82.1089 50.7103C82.1089 51.4615 82.7239 52.0782 83.4731 52.0782C84.2223 52.0782 84.8373 51.4615 84.8373 50.7103C84.8373 49.9592 84.2335 49.3425 83.4731 49.3425ZM83.4731 51.3718C83.1153 51.3718 82.8133 51.0803 82.8133 50.7103C82.8133 50.3516 83.1041 50.0489 83.4731 50.0489C83.8309 50.0489 84.1328 50.3404 84.1328 50.7103C84.1328 51.0691 83.8421 51.3718 83.4731 51.3718Z" fill="white"/>
<path d="M32.7741 47.728C31.7342 47.728 30.8955 48.5689 30.8955 49.6116C30.8955 50.6543 31.7342 51.4951 32.7741 51.4951C33.814 51.4951 34.6526 50.6543 34.6526 49.6116C34.6526 48.5689 33.814 47.728 32.7741 47.728ZM32.7741 50.5197C32.2709 50.5197 31.8683 50.1161 31.8683 49.6116C31.8683 49.1071 32.2709 48.7034 32.7741 48.7034C33.2773 48.7034 33.6798 49.1071 33.6798 49.6116C33.6798 50.1161 33.2773 50.5197 32.7741 50.5197Z" fill="white"/>
<path d="M54.9705 32.1775C48.7981 32.1775 43.7886 35.8549 43.7886 40.418H66.1525C66.1525 35.8549 61.1429 32.1775 54.9705 32.1775Z" fill="white"/>
<path d="M66.3984 41.6515H43.3413C43.0282 41.6515 42.771 41.3936 42.771 41.0797V40.8555C42.771 40.5416 43.0282 40.2837 43.3413 40.2837H66.3873C66.7003 40.2837 66.9575 40.5416 66.9575 40.8555V41.0797C66.9687 41.3936 66.7115 41.6515 66.3984 41.6515Z" fill="white"/>
<path d="M45.7455 37.2227H17.377V38.725H45.7455V37.2227Z" fill="white"/>
<path d="M23.3146 38.6802L17.8354 39.1399C17.5894 39.1623 17.377 39.0277 17.377 38.8596V37.0881C17.377 36.92 17.5894 36.7966 17.8354 36.8078L23.3146 37.2675C23.5158 37.2899 23.6724 37.4021 23.6724 37.5478V38.3999C23.6724 38.5456 23.527 38.6578 23.3146 38.6802Z" fill="white"/>
<path d="M23.8844 36.9651H23.3589V38.9159H23.8844V36.9651Z" fill="white"/>
<path d="M35.1003 36.7632H34.5747V39.1849H35.1003V36.7632Z" fill="white"/>
<path d="M41.5857 36.6956H36.688V37.3458H41.5857V36.6956Z" fill="white"/>
<path d="M57.5756 31.6504H52.1636V33.0855H57.5756V31.6504Z" fill="white"/>
<path d="M55.6974 30.5293H48.6416V31.2356H55.6974V30.5293Z" fill="white"/>
<path d="M54.6126 30.1033H53.718V32.3792H54.6126V30.1033Z" fill="white"/>
<path d="M55.1493 30.1033H50.8442V30.7311H55.1493V30.1033Z" fill="white"/>
<path d="M80.2527 56.955H37.5601C37.1799 56.955 36.7885 56.9102 36.4195 56.8317C33.9036 56.2823 31.8797 53.9391 30.9963 51.8649C30.3589 50.3738 30.303 49.0172 30.8397 48.1427C31.4659 47.1224 32.7519 46.9206 33.2439 46.8533C41.1495 45.6425 49.6366 45.037 58.4591 45.0482C65.8616 45.0595 72.0452 45.4967 76.1378 45.7882C78.3183 45.9452 79.8837 46.0573 80.8342 46.0461H80.8901C81.5722 46.0461 83.3725 46.0349 84.5019 47.2906C85.2622 48.1427 85.3629 49.1741 85.3964 49.5665C85.5753 51.4389 84.5466 52.9525 83.2607 54.8696C83.0594 55.1724 82.8469 55.4639 82.6345 55.7554C82.0754 56.5065 81.192 56.955 80.2527 56.955ZM33.378 47.7278C33.009 47.7839 32.0138 47.9408 31.6001 48.6023C31.2199 49.219 31.3094 50.2953 31.8126 51.5061C32.5729 53.3112 34.4068 55.4639 36.5984 55.946C36.9115 56.0132 37.2358 56.0469 37.5489 56.0469H80.2416C80.8901 56.0469 81.5163 55.7329 81.9077 55.206C82.1089 54.9257 82.3214 54.6454 82.5115 54.3539C83.8757 52.3246 84.6361 51.1137 84.5019 49.6338C84.4683 49.2975 84.3901 48.5014 83.831 47.8736C82.9699 46.9094 81.4604 46.9206 80.8901 46.9318H80.8342C79.8614 46.9318 78.2735 46.8197 76.0707 46.6627C67.5277 46.0685 51.6046 44.9473 33.378 47.7278Z" fill="white"/>
<path d="M85.8549 41.4048H77.0547V50.0041H85.8549V41.4048Z" fill="white"/>
<path d="M83.954 42.6601C83.954 42.6601 73.6107 43.0076 60.8521 43.0076C48.0935 43.0076 37.7502 42.6601 37.7502 42.6601C37.7502 42.6601 48.0935 42.3125 60.8521 42.3125C73.6107 42.3125 83.954 42.6601 83.954 42.6601Z" fill="white"/>
</svg>
